<?xml version="1.0" encoding="UTF-8"?>
<svg version="1.1" xmlns="http://www.w3.org/2000/svg" width="1280" height="1280">
<path d="M0 0 C0.89265942 -0.00906876 1.78531883 -0.01813751 2.70502853 -0.02748108 C3.8606652 -0.04364094 3.8606652 -0.04364094 5.03964806 -0.06012726 C7.04130173 0.04075623 7.04130173 0.04075623 10.04130173 1.04075623 C11.57548379 3.62448533 12.95338522 6.17055771 14.29130173 8.85325623 C15.09266286 10.41549417 15.89606156 11.97668855 16.70145798 13.53684998 C17.0973613 14.30625916 17.49326462 15.07566833 17.90116501 15.86839294 C19.93589627 19.74527491 22.18253453 23.49305896 24.41239548 27.25950623 C28.20086521 33.72806845 31.69315927 40.33581977 35.04130173 47.04075623 C39.65324455 55.89208939 44.58322742 64.55200014 49.60160446 73.17771912 C52.21322998 77.70104933 54.67265555 82.25391722 56.97489548 86.94309998 C60.04123248 93.15603414 63.49407293 99.09256471 67.04130173 105.04075623 C71.20772112 112.02724114 75.11583173 119.04564483 78.70145798 126.34886169 C80.36116253 129.68339202 82.16480915 132.88585333 84.04130173 136.10325623 C86.4271387 140.22177328 88.77835114 144.35306777 91.04130173 148.54075623 C93.31510463 152.74234854 95.6618306 156.89836163 98.04130173 161.04075623 C102.3263238 168.510414 106.56861672 175.99051409 110.35380173 183.72825623 C113.28200992 189.66023927 116.5732546 195.3816141 119.83427048 201.13450623 C122.6309211 206.07019403 125.33381333 211.0557923 128.04130173 216.04075623 C131.02816673 221.5166754 134.12594842 226.89301383 137.41630173 232.19309998 C138.82995307 234.67038803 140.10343484 237.15859013 141.36161423 239.71653748 C143.99759216 245.04024683 146.92594124 250.1601137 149.91630173 255.29075623 C153.99369367 262.34792409 157.8208998 269.43146499 161.38895798 276.75950623 C164.68070897 283.2963167 168.37552317 289.64320295 172.16874313 295.90061951 C175.04130173 300.7176793 175.04130173 300.7176793 175.04130173 304.04075623 C175.70130173 304.04075623 176.36130173 304.04075623 177.04130173 304.04075623 C177.36743454 304.70462341 177.69356735 305.3684906 178.02958298 306.05247498 C180.77171992 311.60811814 180.77171992 311.60811814 183.85380173 316.97825623 C185.04130173 319.04075623 185.04130173 319.04075623 185.04130173 322.04075623 C185.70130173 322.04075623 186.36130173 322.04075623 187.04130173 322.04075623 C187.62137985 323.21831482 187.62137985 323.21831482 188.21317673 324.41966248 C191.63372288 331.35890756 191.63372288 331.35890756 195.41630173 338.10325623 C197.04130173 341.04075623 197.04130173 341.04075623 197.04130173 344.04075623 C197.70130173 344.04075623 198.36130173 344.04075623 199.04130173 344.04075623 C199.58657516 345.16610779 199.58657516 345.16610779 200.14286423 346.31419373 C203.04144053 352.21539778 206.09355538 357.91696932 209.52177048 363.52513123 C211.18283121 366.27506211 212.78372688 369.05035412 214.35380173 371.85325623 C214.84493454 372.72595154 215.33606735 373.59864685 215.84208298 374.49778748 C217.03926657 377.03644063 217.61941277 379.27614272 218.04130173 382.04075623 C218.70130173 382.04075623 219.36130173 382.04075623 220.04130173 382.04075623 C220.59817673 383.17513123 221.15505173 384.30950623 221.72880173 385.47825623 C223.69286418 389.43453972 225.85086895 393.25282092 228.08817673 397.06028748 C229.04130173 399.04075623 229.04130173 399.04075623 229.04130173 402.04075623 C229.70130173 402.04075623 230.36130173 402.04075623 231.04130173 402.04075623 C231.59817673 403.17513123 232.15505173 404.30950623 232.72880173 405.47825623 C234.69286418 409.43453972 236.85086895 413.25282092 239.08817673 417.06028748 C240.04130173 419.04075623 240.04130173 419.04075623 240.04130173 422.04075623 C240.70130173 422.04075623 241.36130173 422.04075623 242.04130173 422.04075623 C242.51696579 423.02688904 242.51696579 423.02688904 243.00223923 424.03294373 C248.14696401 434.52136055 253.5947533 445.00922954 259.84208298 454.88841248 C261.04130173 457.04075623 261.04130173 457.04075623 261.04130173 460.04075623 C261.70130173 460.04075623 262.36130173 460.04075623 263.04130173 460.04075623 C264.04862572 461.97445854 265.04693461 463.91285928 266.04130173 465.85325623 C266.59817673 466.93220154 267.15505173 468.01114685 267.72880173 469.12278748 C269.04130173 472.04075623 269.04130173 472.04075623 269.04130173 475.04075623 C269.70130173 475.04075623 270.36130173 475.04075623 271.04130173 475.04075623 C271.04130173 476.03075623 271.04130173 477.02075623 271.04130173 478.04075623 C271.70130173 478.04075623 272.36130173 478.04075623 273.04130173 478.04075623 C274.04862572 479.97445854 275.04693461 481.91285928 276.04130173 483.85325623 C276.59817673 484.93220154 277.15505173 486.01114685 277.72880173 487.12278748 C279.04130173 490.04075623 279.04130173 490.04075623 279.04130173 493.04075623 C279.70130173 493.04075623 280.36130173 493.04075623 281.04130173 493.04075623 C281.40739548 493.80774841 281.77348923 494.5747406 282.15067673 495.36497498 C285.82680209 502.90103197 289.78968889 510.21432406 293.97880173 517.47825623 C297.65592656 523.85684824 301.30766977 530.24146562 304.79130173 536.72825623 C305.12637741 537.3456366 305.46145309 537.96301697 305.80668259 538.59910583 C308.04130173 542.7981195 308.04130173 542.7981195 308.04130173 545.04075623 C308.70130173 545.04075623 309.36130173 545.04075623 310.04130173 545.04075623 C310.04130173 546.36075623 310.04130173 547.68075623 310.04130173 549.04075623 C310.70130173 549.04075623 311.36130173 549.04075623 312.04130173 549.04075623 C312.56917282 550.1313031 312.56917282 550.1313031 313.10770798 551.24388123 C315.74894727 556.62290641 318.48058825 561.88730547 321.54130173 567.04075623 C323.81675108 570.87283107 325.91137163 574.71754845 327.85380173 578.72825623 C330.36463735 583.86466996 333.17853991 588.75919434 336.10380173 593.66575623 C346.36160089 610.93371893 346.36160089 610.93371893 346.04130173 617.04075623 C345.05130173 617.37075623 344.06130173 617.70075623 343.04130173 618.04075623 C343.70130173 618.70075623 344.36130173 619.36075623 345.04130173 620.04075623 C345.2704564 623.06143147 345.37336794 625.95729038 345.35380173 628.97825623 C345.34961227 629.83765808 345.34542282 630.69705994 345.34110641 631.58250427 C345.17991559 640.68206945 343.94205235 648.7912626 338.04130173 656.04075623 C337.63823213 656.55172893 337.23516253 657.06270163 336.8198787 657.58915836 C334.13849344 660.65854127 332.17449737 662.40253187 328.03454018 662.79300976 C326.48143894 662.8245118 324.92745776 662.82334505 323.37427902 662.79592896 C322.51442874 662.80458333 321.65457846 662.81323771 320.76867211 662.82215434 C317.89388751 662.84370728 315.02104548 662.82246845 312.1462822 662.80125427 C310.08293865 662.80774871 308.01960183 662.81681061 305.95627975 662.82824707 C300.35713697 662.85132645 294.75867586 662.83661079 289.15955496 662.81377769 C283.30242912 662.79486876 277.44534925 662.80601864 271.58820724 662.81268311 C261.75426523 662.81902353 251.92059656 662.80075236 242.08671188 662.76805115 C230.71098937 662.73053605 219.33578419 662.73234457 207.96003425 662.75509232 C197.02175796 662.77602411 186.08367321 662.76877853 175.145401 662.74877357 C170.48753655 662.74077873 165.82983375 662.74278963 161.17197418 662.75279808 C155.69050768 662.76333099 150.20964588 662.74927447 144.7282753 662.71605492 C142.71427047 662.70783127 140.70021039 662.70815088 138.68621063 662.71753311 C135.94157745 662.72891694 133.19883885 662.70965046 130.45435715 662.68240356 C129.65300209 662.69287505 128.85164703 662.70334654 128.02600849 662.71413535 C124.18935535 662.64293013 122.44105681 662.42532076 119.62850761 659.71964741 C117.65937047 656.39613142 115.96706385 652.9989224 114.38895798 649.47825623 C114.05292053 648.74359634 113.71688309 648.00893646 113.37066269 647.25201416 C112.27478117 644.85134777 111.18918259 642.44618608 110.10380173 640.04075623 C109.33594524 638.35260568 108.56754704 636.66470143 107.79862595 634.97703552 C105.53556065 630.00305115 103.2860143 625.02304592 101.04130173 620.04075623 C100.73992294 619.3720752 100.43854416 618.70339417 100.12803268 618.01445007 C97.25606739 611.63938907 94.39997297 605.25730864 91.54911423 598.87278748 C88.87331658 592.88334651 86.17559272 586.90395891 83.47098923 580.92747498 C83.0698793 580.0409726 82.66876938 579.15447021 82.25550461 578.24110413 C80.19894659 573.69756234 78.13946062 569.15537238 76.0759697 564.61497498 C72.38503692 556.48619766 68.7202623 548.35054158 65.18192673 540.15403748 C64.3190676 538.17075507 63.45527944 536.18787947 62.59135056 534.20506287 C61.81976207 532.41913102 61.06592016 530.62556405 60.3127861 528.83177185 C57.54855695 522.48895559 54.70737415 517.21867447 49.04130173 513.04075623 C45.18134836 511.7541051 41.53659314 511.89610627 37.51398849 511.90031433 C36.63290574 511.89734321 35.75182298 511.89437209 34.84404075 511.89131093 C31.87999973 511.88261189 28.91599905 511.88111467 25.95194626 511.87962341 C23.8315637 511.87499614 21.71118198 511.8699716 19.59080124 511.86457825 C13.82223241 511.85144463 8.05367523 511.84500757 2.28509378 511.84056759 C-1.31658937 511.83763879 -4.91826932 511.83353437 -8.51995087 511.82906342 C-19.7822623 511.81538677 -31.04456644 511.80572058 -42.3068856 511.80186152 C-55.32000799 511.79737837 -68.33302547 511.77981916 -81.34611595 511.75086093 C-91.397129 511.72926832 -101.44811248 511.71915856 -111.49914849 511.71782041 C-117.50594812 511.71677076 -123.51264916 511.71082896 -129.51942444 511.69300079 C-135.16811164 511.6765617 -140.81662567 511.67434436 -146.46532822 511.6831398 C-148.54020907 511.68391237 -150.61509908 511.67953861 -152.68995667 511.66968155 C-155.5193184 511.65702675 -158.34806083 511.6628036 -161.17741776 511.67326355 C-162.00125202 511.66520715 -162.82508629 511.65715074 -163.67388523 511.6488502 C-169.27974994 511.69742466 -172.52577621 512.79832505 -176.61500931 516.56738281 C-180.33853244 520.90947657 -182.7998386 525.27231504 -185.06807327 530.50559998 C-185.43209244 531.31856033 -185.7961116 532.13152069 -186.17116165 532.96911621 C-187.36144516 535.63404202 -188.53495064 538.30601147 -189.70869827 540.97825623 C-190.54864269 542.866161 -191.38980945 544.75352236 -192.23213577 546.6403656 C-193.96760497 550.53160137 -195.69702225 554.42543837 -197.4215889 558.32151794 C-200.86626387 566.09722561 -204.36288998 573.84938577 -207.85933304 581.60191345 C-209.33080891 584.86625017 -210.79911658 588.13200794 -212.26753616 591.39772034 C-217.56656689 603.181206 -222.88497172 614.95591094 -228.20869827 626.72825623 C-228.60734085 627.61021667 -229.00598343 628.49217712 -229.41670609 629.40086365 C-231.26873572 633.49788265 -233.12310623 637.59379157 -234.9840889 641.68675232 C-236.24507454 644.4604178 -237.49371693 647.23899071 -238.73018265 650.02366638 C-239.25418655 651.19075134 -239.77819046 652.3578363 -240.31807327 653.56028748 C-240.98274612 655.05652649 -240.98274612 655.05652649 -241.66084671 656.58299255 C-243.69614058 660.43726332 -243.69614058 660.43726332 -245.95869827 662.04075623 C-248.79016394 662.34642486 -251.4042175 662.46693497 -254.23804092 662.45535278 C-255.09250567 662.46356058 -255.94697041 662.47176839 -256.82732803 662.48022491 C-259.7015401 662.50397095 -262.57536149 662.50612718 -265.44966507 662.50828552 C-267.50607398 662.52053144 -269.56247602 662.53398296 -271.61886978 662.54855347 C-277.21409941 662.58367432 -282.80921099 662.59887428 -288.40453696 662.60839057 C-291.89972065 662.61495957 -295.39487286 662.62530217 -298.89004326 662.63689613 C-311.08245469 662.67666063 -323.27477144 662.69866074 -335.46724319 662.70652771 C-346.83330052 662.71439583 -358.19868252 662.76361218 -369.56452435 662.83159322 C-379.32006424 662.88790539 -389.07537958 662.91344064 -398.83108073 662.91547519 C-404.65881724 662.91731668 -410.48584241 662.93198643 -416.31340981 662.97829247 C-421.79747233 663.02094125 -427.28025453 663.02532381 -432.76441383 663.00049782 C-434.77517093 662.9979116 -436.78599967 663.00895991 -438.79659271 663.03477478 C-455.88600629 663.24097559 -455.88600629 663.24097559 -461.11600113 658.15557861 C-463.34870163 655.26584115 -465.21269766 652.32448051 -466.39619827 648.85325623 C-466.68365921 648.05532654 -466.97112015 647.25739685 -467.26729202 646.43528748 C-468.88847493 640.82068227 -469.29744723 635.42173151 -469.45869827 629.60325623 C-469.5128389 628.76987732 -469.56697952 627.93649841 -469.62276077 627.0778656 C-469.75769446 620.9817544 -469.75769446 620.9817544 -467.40230179 618.20774841 C-465.49385452 616.62278748 -465.49385452 616.62278748 -463.57612991 615.2978363 C-461.11683164 613.38645113 -460.83688284 610.96803811 -459.95869827 608.04075623 C-459.11748292 606.91063864 -458.23679471 605.8095637 -457.33369827 604.72825623 C-452.24353339 598.31515245 -449.28229041 590.4640077 -445.95869827 583.04075623 C-445.29869827 583.04075623 -444.63869827 583.04075623 -443.95869827 583.04075623 C-443.74213577 582.14356873 -443.74213577 582.14356873 -443.52119827 581.22825623 C-443.07145438 579.47925218 -442.52977486 577.753986 -441.95869827 576.04075623 C-441.29869827 576.04075623 -440.63869827 576.04075623 -439.95869827 576.04075623 C-439.95869827 574.72075623 -439.95869827 573.40075623 -439.95869827 572.04075623 C-439.29869827 572.04075623 -438.63869827 572.04075623 -437.95869827 572.04075623 C-437.85557327 571.33950623 -437.75244827 570.63825623 -437.64619827 569.91575623 C-436.86510825 566.64937975 -435.53811084 563.99357103 -433.95869827 561.04075623 C-433.29869827 561.04075623 -432.63869827 561.04075623 -431.95869827 561.04075623 C-431.95869827 559.72075623 -431.95869827 558.40075623 -431.95869827 557.04075623 C-431.29869827 557.04075623 -430.63869827 557.04075623 -429.95869827 557.04075623 C-429.79047562 555.96761169 -429.79047562 555.96761169 -429.61885452 554.87278748 C-428.91413822 551.84959624 -427.82582029 549.47752934 -426.39619827 546.72825623 C-425.94115921 545.84524841 -425.48612015 544.9622406 -425.01729202 544.05247498 C-424.66795609 543.38860779 -424.31862015 542.7247406 -423.95869827 542.04075623 C-423.29869827 542.04075623 -422.63869827 542.04075623 -421.95869827 542.04075623 C-421.95869827 540.72075623 -421.95869827 539.40075623 -421.95869827 538.04075623 C-421.29869827 538.04075623 -420.63869827 538.04075623 -419.95869827 538.04075623 C-419.95869827 536.72075623 -419.95869827 535.40075623 -419.95869827 534.04075623 C-419.29869827 534.04075623 -418.63869827 534.04075623 -417.95869827 534.04075623 C-417.95869827 532.72075623 -417.95869827 531.40075623 -417.95869827 530.04075623 C-417.29869827 530.04075623 -416.63869827 530.04075623 -415.95869827 530.04075623 C-415.86588577 529.52899841 -415.77307327 529.0172406 -415.67744827 528.48997498 C-414.67592061 525.07716062 -413.06800719 522.0101545 -411.45869827 518.85325623 C-411.10630081 518.15563171 -410.75390335 517.4580072 -410.39082718 516.73924255 C-405.35350796 506.81393177 -400.13722048 496.97956552 -394.77119827 487.22825623 C-392.81375752 483.66100765 -390.95208002 480.06205844 -389.14619827 476.41575623 C-385.61314684 469.28524878 -381.87164463 462.26986283 -378.13203812 455.24632263 C-376.23522417 451.6808176 -374.34729252 448.11061978 -372.45869827 444.54075623 C-371.70744858 443.12145766 -370.95614646 441.70218685 -370.20479202 440.28294373 C-369.83338089 439.58137146 -369.46196976 438.87979919 -369.07930374 438.15696716 C-367.96789264 436.05811935 -366.85594507 433.95955659 -365.74385452 431.86106873 C-365.0029236 430.46265533 -364.26203831 429.06421777 -363.52119827 427.66575623 C-363.15397659 426.97256287 -362.78675491 426.27936951 -362.4084053 425.56517029 C-359.97219181 420.96331626 -357.54612903 416.35621045 -355.12422562 411.74681091 C-351.3645225 404.59156813 -347.57679787 397.45371359 -343.73604202 390.34153748 C-338.88842815 381.338826 -334.06430437 372.32679604 -329.52119827 363.16575623 C-322.34302143 348.6930895 -314.61836366 334.4920247 -306.9997139 320.24778748 C-302.55035336 311.92667101 -298.13276387 303.5895153 -293.74483109 295.23582458 C-291.7069362 291.35718749 -289.66413403 287.48144303 -287.60322952 283.61497498 C-283.88300165 276.63190476 -280.22433244 269.62941249 -276.70869827 262.54075623 C-273.3428156 255.75957599 -269.76685831 249.15974348 -265.97041702 242.61106873 C-261.23766797 234.38214846 -256.93576001 226.0493292 -252.96553421 217.42405701 C-251.1478448 213.48350033 -249.27565013 209.72023375 -246.95869827 206.04075623 C-240.0399899 194.02139424 -233.72491522 181.64453113 -227.56416702 169.22434998 C-225.66641509 165.46116793 -223.65822648 161.76978062 -221.62276077 158.07981873 C-216.90656034 149.46666395 -212.28304718 140.79512317 -207.95869827 131.97825623 C-205.65715332 127.31794558 -203.1578746 122.80328245 -200.58369827 118.29075623 C-197.57312672 113.00702414 -194.71090077 107.68245071 -192.02119827 102.22825623 C-184.68399194 87.35387015 -176.77316542 72.77805968 -168.86836624 58.19944763 C-165.85232909 52.62283541 -162.91674533 47.02161622 -160.10493851 41.33934021 C-158.34579408 37.81168423 -156.49951639 34.332108 -154.64619827 30.85325623 C-154.07361282 29.77467346 -154.07361282 29.77467346 -153.48945999 28.67430115 C-151.56645302 25.05407981 -149.63706821 21.43728735 -147.70479202 17.82200623 C-147.16882401 16.81883362 -147.16882401 16.81883362 -146.62202835 15.7953949 C-145.95217912 14.54247916 -145.28150433 13.29000429 -144.60982132 12.03807068 C-142.66392222 8.40164926 -140.79700018 4.73251265 -138.95869827 1.04075623 C-121.39921076 0.90992169 -103.83972015 0.77951268 -86.28022575 0.6496048 C-78.12633618 0.58927122 -69.97244767 0.52880046 -61.81856155 0.46800232 C-54.70839812 0.41498688 -47.5982328 0.36223335 -40.48806512 0.30978918 C-36.72625675 0.2820333 -32.96444943 0.25414975 -29.20264435 0.22595215 C-25.65522236 0.19936566 -22.10779793 0.17313181 -18.5603714 0.14715767 C-16.65145817 0.13309196 -14.74254764 0.118662 -12.83363724 0.10421753 C-10.56981193 0.08776935 -8.30597259 0.07310997 -6.04212189 0.06063843 C-4.0280217 0.04765132 -2.01395099 0.02774228 0 0 Z M-65.95869827 233.04075623 C-66.32406693 234.02205505 -66.68943558 235.00335388 -67.06587601 236.01438904 C-75.33866032 258.21808302 -83.7404905 280.36740395 -92.32173538 302.45384216 C-92.66843277 303.34715744 -93.01513016 304.24047272 -93.37233353 305.16085815 C-94.0126913 306.81027073 -94.65406395 308.4592899 -95.296772 310.10778809 C-97.60729379 316.0579193 -99.77573959 322.03761985 -101.95869827 328.04075623 C-77.53869827 328.04075623 -53.11869827 328.04075623 -27.95869827 328.04075623 C-35.2960804 308.6967488 -42.63735273 289.3542747 -49.99263382 270.01707458 C-54.67655543 257.70224453 -59.34928799 245.38369474 -63.95869827 233.04075623 C-64.61869827 233.04075623 -65.27869827 233.04075623 -65.95869827 233.04075623 Z " fill="#5AAEFE" transform="translate(704.9586982727051,311.95924377441406)"/>
<path d="M0 0 C93.39 0 186.78 0 283 0 C283 81.18 283 162.36 283 246 C184 246 85 246 -17 246 C-16.28986234 241.73917404 -15.76179296 238.9900952 -14.1796875 235.19140625 C-13.81270752 234.29212402 -13.44572754 233.3928418 -13.06762695 232.46630859 C-12.67406006 231.50805176 -12.28049316 230.54979492 -11.875 229.5625 C-0.35271117 200.65236364 5.49723699 170.71232276 10 140 C10.16962753 138.92615555 10.33925507 137.8523111 10.51402283 136.7459259 C10.96608086 133.2614497 11.13938948 129.94604006 11.16113281 126.43579102 C11.17074036 125.17239395 11.1803479 123.90899689 11.19024658 122.60731506 C11.19510309 121.23951401 11.19937981 119.8717108 11.203125 118.50390625 C11.20595238 117.80109968 11.20877975 117.09829311 11.21169281 116.37418938 C11.22665265 112.63772084 11.23589617 108.90129042 11.24023438 105.16479492 C11.24457789 102.12690954 11.25831137 99.08931477 11.28125 96.05151367 C11.46414903 71.29520965 9.51971972 47.69854377 4.375 23.4375 C3.90374102 21.17472815 3.43518405 18.91142234 2.96841431 16.64772034 C2.55314453 14.63973819 2.131081 12.63316439 1.70849609 10.62670898 C1.02061886 7.10554556 0.50738086 3.55166604 0 0 Z " fill="#00ACAE" transform="translate(997,536)"/>
<path d="M0 0 C93.39 0 186.78 0 283 0 C282.29740351 4.91817541 281.49734271 9.64937549 280.4765625 14.49609375 C280.17404153 15.95889394 279.87197483 17.42178813 279.5703125 18.88476562 C279.10533746 21.13094162 278.63794408 23.37645938 278.16210938 25.62036133 C273.28137604 48.70259542 271.47621225 71.39957971 271.55395508 94.95288086 C271.56313446 97.85421635 271.55621793 100.75474591 271.53344727 103.65600586 C271.3843402 122.78301248 272.53996234 141.12496968 276 160 C276.26571605 161.52334718 276.53055443 163.04684793 276.79418945 164.57055664 C277.44234811 168.18315134 278.13964659 171.77925084 278.875 175.375 C279.12910645 176.62410156 279.38321289 177.87320313 279.64501953 179.16015625 C283.97910709 199.94668588 290.00316392 220.82830593 299.26123047 240.00097656 C300 242 300 242 300 246 C201 246 102 246 0 246 C0 164.82 0 83.64 0 0 Z " fill="#00ACAE" transform="translate(0,536)"/>
<path d="M0 0 C16.54165664 -0.03237072 33.08331554 -0.05154738 49.625 -0.0625 C51.54975662 -0.06378403 51.54975662 -0.06378403 53.51339722 -0.06509399 C105.84356688 -0.09572151 158.17100519 0.16720048 210.5 0.5 C211.44072892 0.50597372 212.38145784 0.51194743 213.3506937 0.51810217 C237.56717478 0.67201264 261.78360945 0.83245529 286 1 C286.27674561 1.73001221 286.55349121 2.46002441 286.83862305 3.2121582 C288.11790208 6.58034948 289.40266828 9.94642314 290.6875 13.3125 C291.12255859 14.46041016 291.55761719 15.60832031 292.00585938 16.79101562 C294.45247237 23.18845553 297.03452472 29.47295291 299.93089294 35.68051147 C301.43800503 38.9502768 302.7511826 42.27182626 304.0625 45.625 C305.62808718 49.60121298 307.2110708 53.55530094 309 57.4375 C310.85381775 61.50666842 312.39314652 65.68138186 313.9375 69.875 C315.98315617 75.42256383 318.20907605 80.80687388 320.71875 86.1640625 C322.53109842 90.17554102 324.14284957 94.2625292 325.75634766 98.35668945 C327.77887179 103.48396555 329.92090365 108.55377822 332.1171875 113.609375 C333 116 333 116 333 119 C333.66 119 334.32 119 335 119 C335.56267578 120.54107422 335.56267578 120.54107422 336.13671875 122.11328125 C338.79761479 129.3393372 341.54952499 136.4294681 344.84765625 143.39453125 C346.47308293 147.06964853 347.70209767 150.85734193 348.91015625 154.6875 C349.83670956 157.14565343 349.83670956 157.14565343 352.12109375 158.5 C352.74113281 158.995 353.36117187 159.49 354 160 C354.11743164 162.59375 354.11743164 162.59375 354 165 C354.70673229 165.00938567 355.41346458 165.01877134 356.14161301 165.02844143 C373.57351481 165.26008793 391.00538367 165.49408123 408.43722153 165.73049068 C416.86812692 165.84477706 425.29904091 165.95832842 433.72998047 166.07006836 C437.01660247 166.11370182 440.30322354 166.15740368 443.58984375 166.20117188 C444.39856084 166.21194047 445.20727793 166.22270907 446.04050159 166.23380399 C459.45730856 166.41294971 472.87382244 166.60877713 486.29024506 166.81462669 C494.20069988 166.9350373 502.11092555 167.03711255 510.02195358 167.11402416 C514.22273211 167.15767349 518.42319788 167.21614533 522.62372589 167.27917671 C524.48421741 167.30365726 526.34481278 167.32135408 528.20543671 167.33167839 C530.68087643 167.34601378 533.15482443 167.38381265 535.62988281 167.42797852 C536.33245964 167.42583155 537.03503647 167.42368458 537.7589035 167.42147255 C541.10735699 167.50680087 542.76188393 167.81285443 545.42927551 169.90927124 C547.18205192 172.24232205 547.50366014 173.28131046 547.49609375 176.16015625 C547.50044434 177.34315308 547.50044434 177.34315308 547.50488281 178.55004883 C547.47152832 179.79371216 547.47152832 179.79371216 547.4375 181.0625 C547.41768066 182.33806763 547.41768066 182.33806763 547.39746094 183.6394043 C547.13936401 192.67365712 545.85404895 200.80788272 540 208 C539.3953956 208.76645905 539.3953956 208.76645905 538.77857697 209.54840213 C536.09719171 212.61778504 534.13319564 214.36177565 529.99323845 214.75225353 C528.44013721 214.78375557 526.88615603 214.78258882 525.33297729 214.75517273 C524.04320187 214.7681543 524.04320187 214.7681543 522.72737038 214.78139812 C519.85258578 214.80295106 516.97974375 214.78171222 514.10498047 214.76049805 C512.04163692 214.76699249 509.9783001 214.77605439 507.91497803 214.78749084 C502.31583525 214.81057022 496.71737413 214.79585457 491.11825323 214.77302146 C485.26112739 214.75411253 479.40404752 214.76526242 473.54690552 214.77192688 C463.7129635 214.7782673 453.87929483 214.75999614 444.04541016 214.72729492 C432.66968764 214.68977982 421.29448247 214.69158834 409.91873252 214.7143361 C398.98045623 214.73526789 388.04237148 214.7280223 377.10409927 214.70801735 C372.44623483 214.7000225 367.78853202 214.7020334 363.13067245 214.71204185 C357.64920596 214.72257477 352.16834415 214.70851825 346.68697357 214.67529869 C344.67296875 214.66707504 342.65890867 214.66739466 340.64490891 214.67677689 C337.90027572 214.68816071 335.15753713 214.66889423 332.41305542 214.64164734 C331.61170036 214.65211883 330.8103453 214.66259032 329.98470676 214.67337912 C326.14805363 214.6021739 324.39975508 214.38456454 321.58720589 211.67889118 C319.61806874 208.35537519 317.92576212 204.95816617 316.34765625 201.4375 C316.0116188 200.70284012 315.67558136 199.96818024 315.32936096 199.21125793 C314.23347944 196.81059154 313.14788087 194.40542985 312.0625 192 C311.29464352 190.31184945 310.52624532 188.6239452 309.75732422 186.9362793 C307.49425892 181.96229492 305.24471258 176.9822897 303 172 C302.69862122 171.33131897 302.39724243 170.66263794 302.08673096 169.97369385 C299.21476566 163.59863284 296.35867124 157.21655242 293.5078125 150.83203125 C290.83201486 144.84259029 288.13429099 138.86320268 285.4296875 132.88671875 C285.02857758 132.00021637 284.62746765 131.11371399 284.21420288 130.2003479 C282.15764487 125.65680612 280.09815889 121.11461616 278.03466797 116.57421875 C274.3437352 108.44544143 270.67896057 100.30978536 267.140625 92.11328125 C266.27776587 90.12999884 265.41397771 88.14712324 264.55004883 86.16430664 C263.77846034 84.37837479 263.02461843 82.58480783 262.27148438 80.79101562 C259.50725523 74.44819937 256.66607243 69.17791825 251 65 C247.14004664 63.71334888 243.49529142 63.85535005 239.47268677 63.85955811 C238.59160401 63.85658698 237.71052126 63.85361586 236.80273902 63.8505547 C233.83869801 63.84185567 230.87469732 63.84035845 227.91064453 63.83886719 C225.79026198 63.83423992 223.66988026 63.82921538 221.54949951 63.82382202 C215.78093069 63.81068841 210.0123735 63.80425134 204.24379206 63.79981136 C200.6421089 63.79688256 197.04042895 63.79277815 193.43874741 63.78830719 C182.17643597 63.77463055 170.91413183 63.76496436 159.65181267 63.7611053 C146.63869028 63.75662214 133.62567281 63.73906293 120.61258233 63.7101047 C110.56156927 63.6885121 100.51058579 63.67840233 90.45954978 63.67706418 C84.45275015 63.67601454 78.44604911 63.67007274 72.43927383 63.65224457 C66.79058664 63.63580547 61.1420726 63.63358814 55.49337006 63.64238358 C53.4184892 63.64315615 51.34359919 63.63878238 49.26874161 63.62892532 C46.43937987 63.61627053 43.61063744 63.62204737 40.78128052 63.63250732 C39.95744625 63.62445092 39.13361199 63.61639452 38.28481305 63.60809398 C32.67894834 63.65666843 29.43292206 64.75756882 25.34368896 68.52662659 C21.62016583 72.86872034 19.15885967 77.23155882 16.890625 82.46484375 C16.52660583 83.27780411 16.16258667 84.09076447 15.78753662 84.92835999 C14.59725311 87.5932858 13.42374763 90.26525524 12.25 92.9375 C11.41005559 94.82540477 10.56888882 96.71276614 9.7265625 98.59960938 C7.99109331 102.49084514 6.26167602 106.38468215 4.53710938 110.28076172 C1.09243441 118.05646938 -2.40419171 125.80862955 -5.90063477 133.56115723 C-7.37211064 136.82549394 -8.84041831 140.09125171 -10.30883789 143.35696411 C-15.60786862 155.14044977 -20.92627345 166.91515471 -26.25 178.6875 C-26.64864258 179.56946045 -27.04728516 180.4514209 -27.45800781 181.36010742 C-29.31003745 185.45712643 -31.16440796 189.55303535 -33.02539062 193.64599609 C-34.28637627 196.41966157 -35.53501865 199.19823449 -36.77148438 201.98291016 C-37.29548828 203.14999512 -37.81949219 204.31708008 -38.359375 205.51953125 C-39.02404785 207.01577026 -39.02404785 207.01577026 -39.70214844 208.54223633 C-41.73744231 212.3965071 -41.73744231 212.3965071 -44 214 C-46.83146567 214.30566864 -49.44551923 214.42617874 -52.27934265 214.41459656 C-53.1338074 214.42280436 -53.98827214 214.43101216 -54.86862975 214.43946868 C-57.74284183 214.46321472 -60.61666321 214.46537095 -63.4909668 214.4675293 C-65.54737571 214.47977521 -67.60377775 214.49322673 -69.66017151 214.50779724 C-75.25540114 214.5429181 -80.85051271 214.55811806 -86.44583869 214.56763434 C-89.94102238 214.57420335 -93.43617459 214.58454594 -96.93134499 214.59613991 C-109.12375641 214.6359044 -121.31607317 214.65790451 -133.50854492 214.66577148 C-144.87460225 214.67363961 -156.23998425 214.72285595 -167.60582608 214.79083699 C-177.36136597 214.84714916 -187.11668131 214.87268441 -196.87238246 214.87471896 C-202.70011897 214.87656045 -208.52714414 214.8912302 -214.35471153 214.93753624 C-219.83877406 214.98018502 -225.32155625 214.98456759 -230.80571556 214.95974159 C-232.81647265 214.95715537 -234.8273014 214.96820369 -236.83789444 214.99401855 C-253.92730802 215.20021936 -253.92730802 215.20021936 -259.15730286 210.11482239 C-261.39000336 207.22508492 -263.25399939 204.28372428 -264.4375 200.8125 C-264.72496094 200.01457031 -265.01242187 199.21664062 -265.30859375 198.39453125 C-266.90231494 192.87503357 -267.43236933 187.47029809 -267.6875 181.75 C-267.76677734 180.94175781 -267.84605469 180.13351562 -267.92773438 179.30078125 C-268.0669332 175.25430386 -267.54731753 172.81730277 -265.2722168 169.41992188 C-260.45183926 164.34383072 -256.48224918 162.44149714 -249.49609375 161.9375 C-246.79873467 161.91373472 -244.13103341 161.9324929 -241.4375 162 C-240.04623428 162.0055151 -238.65494542 162.00684591 -237.26367188 162.00390625 C-234.74528682 162.00141896 -232.22674704 162.01878283 -229.70874023 162.0625 C-227.08367352 162.31387604 -227.08367352 162.31387604 -226 161 C-223.13358206 160.89921188 -220.29123968 160.86385534 -217.42431641 160.87060547 C-216.06800849 160.86801098 -216.06800849 160.86801098 -214.68430042 160.86536407 C-211.65670299 160.86098093 -208.62916073 160.86396329 -205.6015625 160.8671875 C-203.47477705 160.86617389 -201.34799172 160.86483564 -199.22120667 160.8631897 C-193.52958029 160.86048696 -187.83798106 160.86495085 -182.14635849 160.87142944 C-178.64262561 160.87498213 -175.1388968 160.87661359 -171.63516235 160.87768555 C-139.08102195 160.8901035 -106.54204773 161.02975102 -74 162 C-73.34 160.68 -72.68 159.36 -72 158 C-70.35 158.66 -68.7 159.32 -67 160 C-66.91234375 159.36191406 -66.8246875 158.72382812 -66.734375 158.06640625 C-65.71468947 153.80867679 -63.98524031 149.94804402 -62.25 145.9375 C-61.51931371 144.22795755 -60.7888446 142.51832225 -60.05859375 140.80859375 C-59.70394043 139.98214355 -59.34928711 139.15569336 -58.98388672 138.30419922 C-57.73511257 135.37965072 -56.52210874 132.4409337 -55.3125 129.5 C-53.73284806 125.6842867 -52.05526831 121.93141215 -50.3125 118.1875 C-48.45888216 114.16549903 -47.05075833 110.29855681 -46 106 C-45.34 106 -44.68 106 -44 106 C-43.8656958 105.4227417 -43.7313916 104.8454834 -43.59301758 104.25073242 C-43.02328867 102.08838956 -42.32101174 100.07148436 -41.51171875 97.98828125 C-41.07303467 96.85737061 -41.07303467 96.85737061 -40.62548828 95.70361328 C-40.31595215 94.9145459 -40.00641602 94.12547852 -39.6875 93.3125 C-39.37280762 92.50538574 -39.05811523 91.69827148 -38.73388672 90.86669922 C-37.11616409 86.74454547 -35.45585696 82.65829005 -33.625 78.625 C-32.42749009 75.95363175 -31.62885282 73.79901157 -31 71 C-30.34 71 -29.68 71 -29 71 C-28.89816406 69.97390625 -28.79632813 68.9478125 -28.69140625 67.890625 C-27.98379177 63.90879436 -26.85101514 61.28934918 -24.9375 57.75 C-18.45800105 45.36998493 -13.05768608 32.37434688 -9 19 C-8.34 19 -7.68 19 -7 19 C-6.89816406 18.32582031 -6.79632813 17.65164063 -6.69140625 16.95703125 C-5.84598862 13.34131857 -4.4376995 10.0672998 -2.9375 6.6875 C-2.65583984 6.04232422 -2.37417969 5.39714844 -2.08398438 4.73242188 C-1.3937257 3.15301642 -0.69746802 1.57623507 0 0 Z " fill="#2B36B8" transform="translate(503,760)"/>
<path d="M0 0 C0.89265942 -0.00906876 1.78531883 -0.01813751 2.70502853 -0.02748108 C3.8606652 -0.04364094 3.8606652 -0.04364094 5.03964806 -0.06012726 C7.04130173 0.04075623 7.04130173 0.04075623 10.04130173 1.04075623 C11.57548379 3.62448533 12.95338522 6.17055771 14.29130173 8.85325623 C15.09266286 10.41549417 15.89606156 11.97668855 16.70145798 13.53684998 C17.0973613 14.30625916 17.49326462 15.07566833 17.90116501 15.86839294 C19.93589627 19.74527491 22.18253453 23.49305896 24.41239548 27.25950623 C28.20086521 33.72806845 31.69315927 40.33581977 35.04130173 47.04075623 C39.65324455 55.89208939 44.58322742 64.55200014 49.60160446 73.17771912 C52.21322998 77.70104933 54.67265555 82.25391722 56.97489548 86.94309998 C60.04123248 93.15603414 63.49407293 99.09256471 67.04130173 105.04075623 C71.20772112 112.02724114 75.11583173 119.04564483 78.70145798 126.34886169 C80.36116253 129.68339202 82.16480915 132.88585333 84.04130173 136.10325623 C86.4271387 140.22177328 88.77835114 144.35306777 91.04130173 148.54075623 C93.31510463 152.74234854 95.6618306 156.89836163 98.04130173 161.04075623 C102.3263238 168.510414 106.56861672 175.99051409 110.35380173 183.72825623 C113.28200992 189.66023927 116.5732546 195.3816141 119.83427048 201.13450623 C122.6309211 206.07019403 125.33381333 211.0557923 128.04130173 216.04075623 C131.02816673 221.5166754 134.12594842 226.89301383 137.41630173 232.19309998 C138.82995307 234.67038803 140.10343484 237.15859013 141.36161423 239.71653748 C143.99759216 245.04024683 146.92594124 250.1601137 149.91630173 255.29075623 C153.99369367 262.34792409 157.8208998 269.43146499 161.38895798 276.75950623 C164.68070897 283.2963167 168.37552317 289.64320295 172.16874313 295.90061951 C175.04130173 300.7176793 175.04130173 300.7176793 175.04130173 304.04075623 C175.70130173 304.04075623 176.36130173 304.04075623 177.04130173 304.04075623 C177.36743454 304.70462341 177.69356735 305.3684906 178.02958298 306.05247498 C180.77171992 311.60811814 180.77171992 311.60811814 183.85380173 316.97825623 C185.04130173 319.04075623 185.04130173 319.04075623 185.04130173 322.04075623 C185.70130173 322.04075623 186.36130173 322.04075623 187.04130173 322.04075623 C187.62137985 323.21831482 187.62137985 323.21831482 188.21317673 324.41966248 C191.63372288 331.35890756 191.63372288 331.35890756 195.41630173 338.10325623 C197.04130173 341.04075623 197.04130173 341.04075623 197.04130173 344.04075623 C197.70130173 344.04075623 198.36130173 344.04075623 199.04130173 344.04075623 C199.58657516 345.16610779 199.58657516 345.16610779 200.14286423 346.31419373 C203.04144053 352.21539778 206.09355538 357.91696932 209.52177048 363.52513123 C211.18283121 366.27506211 212.78372688 369.05035412 214.35380173 371.85325623 C214.84493454 372.72595154 215.33606735 373.59864685 215.84208298 374.49778748 C217.03926657 377.03644063 217.61941277 379.27614272 218.04130173 382.04075623 C218.70130173 382.04075623 219.36130173 382.04075623 220.04130173 382.04075623 C220.59817673 383.17513123 221.15505173 384.30950623 221.72880173 385.47825623 C223.69286418 389.43453972 225.85086895 393.25282092 228.08817673 397.06028748 C229.04130173 399.04075623 229.04130173 399.04075623 229.04130173 402.04075623 C229.70130173 402.04075623 230.36130173 402.04075623 231.04130173 402.04075623 C231.59817673 403.17513123 232.15505173 404.30950623 232.72880173 405.47825623 C234.69286418 409.43453972 236.85086895 413.25282092 239.08817673 417.06028748 C240.04130173 419.04075623 240.04130173 419.04075623 240.04130173 422.04075623 C240.70130173 422.04075623 241.36130173 422.04075623 242.04130173 422.04075623 C242.51696579 423.02688904 242.51696579 423.02688904 243.00223923 424.03294373 C248.14696401 434.52136055 253.5947533 445.00922954 259.84208298 454.88841248 C261.04130173 457.04075623 261.04130173 457.04075623 261.04130173 460.04075623 C261.70130173 460.04075623 262.36130173 460.04075623 263.04130173 460.04075623 C264.04862572 461.97445854 265.04693461 463.91285928 266.04130173 465.85325623 C266.59817673 466.93220154 267.15505173 468.01114685 267.72880173 469.12278748 C269.04130173 472.04075623 269.04130173 472.04075623 269.04130173 475.04075623 C269.70130173 475.04075623 270.36130173 475.04075623 271.04130173 475.04075623 C271.04130173 476.03075623 271.04130173 477.02075623 271.04130173 478.04075623 C271.70130173 478.04075623 272.36130173 478.04075623 273.04130173 478.04075623 C274.04862572 479.97445854 275.04693461 481.91285928 276.04130173 483.85325623 C276.59817673 484.93220154 277.15505173 486.01114685 277.72880173 487.12278748 C279.04130173 490.04075623 279.04130173 490.04075623 279.04130173 493.04075623 C279.70130173 493.04075623 280.36130173 493.04075623 281.04130173 493.04075623 C281.40739548 493.80774841 281.77348923 494.5747406 282.15067673 495.36497498 C285.82680209 502.90103197 289.78968889 510.21432406 293.97880173 517.47825623 C297.65592656 523.85684824 301.30766977 530.24146562 304.79130173 536.72825623 C305.12637741 537.3456366 305.46145309 537.96301697 305.80668259 538.59910583 C308.04130173 542.7981195 308.04130173 542.7981195 308.04130173 545.04075623 C308.70130173 545.04075623 309.36130173 545.04075623 310.04130173 545.04075623 C310.04130173 546.36075623 310.04130173 547.68075623 310.04130173 549.04075623 C310.70130173 549.04075623 311.36130173 549.04075623 312.04130173 549.04075623 C312.56917282 550.1313031 312.56917282 550.1313031 313.10770798 551.24388123 C315.74894727 556.62290641 318.48058825 561.88730547 321.54130173 567.04075623 C323.81675108 570.87283107 325.91137163 574.71754845 327.85380173 578.72825623 C330.36463735 583.86466996 333.17853991 588.75919434 336.10380173 593.66575623 C346.16722941 610.6065143 346.16722941 610.6065143 346.04130173 617.04075623 C344.82024734 617.01792068 343.59919296 616.99508514 342.34113693 616.97155762 C326.61626852 616.67792513 310.89131571 616.38898463 295.16630173 616.10325623 C293.90624313 616.08035774 292.64618454 616.05745926 291.34794235 616.03386688 C256.24677627 615.39728779 221.14593283 614.82215885 186.04130173 614.41575623 C184.71430126 614.40038755 184.71430126 614.40038755 183.36049271 614.3847084 C172.92082261 614.26430467 162.48110338 614.14918908 152.04130173 614.04075623 C151.04130173 611.04075623 151.04130173 611.04075623 150.72880173 609.10325623 C150.16947366 606.87819466 150.16947366 606.87819466 148.14677048 605.27122498 C145.72189462 602.70238618 144.85299991 600.60677811 143.66630173 597.29075623 C143.04175095 595.57759216 143.04175095 595.57759216 142.40458298 593.82981873 C142.18624802 593.21912537 141.96791306 592.60843201 141.74296188 591.97923279 C141.00348471 589.93627915 140.2352072 587.9060667 139.45927048 585.87669373 C138.92410376 584.47305188 138.38894735 583.06940611 137.85380173 581.66575623 C137.60388474 581.0125238 137.35396774 580.35929138 137.09647751 579.68626404 C135.52327435 575.5115926 134.21330768 571.3399629 133.04130173 567.04075623 C132.38130173 567.04075623 131.72130173 567.04075623 131.04130173 567.04075623 C130.7499736 566.2647406 130.45864548 565.48872498 130.15848923 564.68919373 C127.44750889 557.54516379 124.55302595 550.52312096 121.51005173 543.51341248 C120.10595418 540.193618 118.80814853 536.85245396 117.54130173 533.47825623 C115.85153829 528.99765769 113.97227703 524.67789392 111.91630173 520.35325623 C109.75469555 515.78190031 108.07467498 511.36604071 106.87723923 506.45481873 C105.93121446 503.72284065 104.53139585 501.39730536 103.06669235 498.91477966 C101.3932812 495.85642156 100.26663848 492.63223911 99.10380173 489.35325623 C98.58464651 487.93076765 98.06379916 486.50889556 97.54130173 485.08763123 C97.28735641 484.39604919 97.0334111 483.70446716 96.77177048 482.9919281 C95.00866453 478.28245525 93.00284213 473.66999157 91.04130173 469.04075623 C89.76273514 466.02311648 88.49348998 463.00173608 87.22880173 459.97825623 C86.91435104 459.23905945 86.59990036 458.49986267 86.27592087 457.73826599 C85.00503809 454.69146481 84.04130173 452.37620449 84.04130173 449.04075623 C83.29639732 449.04167802 82.55149292 449.04259981 81.78401566 449.04354954 C57.36978351 449.07323237 32.95554934 449.09224634 8.54130173 449.10325623 C7.60596068 449.10369053 6.67061964 449.10412483 5.70693493 449.1045723 C-46.97546665 449.12837038 -99.65336808 449.02837436 -152.33369827 448.54075623 C-153.62653732 448.52879841 -154.91937637 448.51684059 -156.25139236 448.50452042 C-171.48729664 448.36250109 -186.72306081 448.20896387 -201.95869827 448.04075623 C-202.16171051 448.728461 -202.36472275 449.41616577 -202.57388687 450.12471008 C-202.84178528 451.02625824 -203.10968369 451.9278064 -203.38570023 452.85667419 C-203.65058746 453.75062897 -203.9154747 454.64458374 -204.18838882 455.56562805 C-205.0062662 458.19359963 -205.98023778 460.67301309 -207.14619827 463.16575623 C-207.49037796 463.91083435 -207.83455765 464.65591248 -208.18916702 465.42356873 C-208.44311234 465.9572406 -208.69705765 466.49091248 -208.95869827 467.04075623 C-209.61869827 467.04075623 -210.27869827 467.04075623 -210.95869827 467.04075623 C-211.02057327 467.94825623 -211.08244827 468.85575623 -211.14619827 469.79075623 C-211.89929424 474.87164372 -214.01384111 479.33120168 -216.07100296 484.00315857 C-217.12862658 486.43080617 -218.15717318 488.8699869 -219.18526077 491.31028748 C-219.98451665 493.19970486 -220.78399715 495.08902724 -221.58369827 496.97825623 C-221.9678389 497.89042908 -222.35197952 498.80260193 -222.74776077 499.74241638 C-224.58304589 504.04625556 -226.49872707 508.05161374 -228.95869827 512.04075623 C-229.68036018 514.35767076 -230.35929357 516.68924546 -230.95869827 519.04075623 C-231.61869827 519.04075623 -232.27869827 519.04075623 -232.95869827 519.04075623 C-233.1056514 520.25698669 -233.1056514 520.25698669 -233.25557327 521.49778748 C-234.11097853 525.80807952 -235.58130401 529.65826889 -237.20869827 533.72825623 C-237.52008743 534.51829041 -237.83147659 535.30832458 -238.15230179 536.12229919 C-240.56306064 542.18416626 -243.14496746 548.15396457 -245.95869827 554.04075623 C-246.61869827 554.04075623 -247.27869827 554.04075623 -247.95869827 554.04075623 C-248.2087764 555.31821716 -248.45885452 556.5956781 -248.71651077 557.91184998 C-249.89641636 563.21105687 -251.77123278 568.09276849 -253.83369827 573.10325623 C-254.17272171 573.94952576 -254.51174515 574.79579529 -254.86104202 575.66770935 C-256.71423432 580.23727286 -258.73068933 584.65451389 -260.97676468 589.04246521 C-262.73954467 592.6298233 -264.21271951 596.33612212 -265.70869827 600.04075623 C-266.02451859 600.81548279 -266.3403389 601.59020935 -266.66572952 602.38841248 C-267.4328658 604.27138333 -268.19619077 606.15590621 -268.95869827 608.04075623 C-270.60869827 607.71075623 -272.25869827 607.38075623 -273.95869827 607.04075623 C-274.61869827 608.03075623 -275.27869827 609.02075623 -275.95869827 610.04075623 C-278.57584095 610.4071064 -278.57584095 610.4071064 -281.96298599 610.39479065 C-283.88336937 610.3988089 -283.88336937 610.3988089 -285.84254837 610.40290833 C-287.26936954 610.39069515 -288.69618836 610.37820407 -290.12300491 610.36546326 C-291.61919371 610.3629811 -293.11538523 610.36183278 -294.61157608 610.36192322 C-298.68176174 610.35850432 -302.75167232 610.33671678 -306.82177663 610.31200647 C-311.07340448 610.28957594 -315.32504809 610.28484082 -319.57672501 610.27851868 C-327.63266259 610.2640156 -335.6884759 610.23506938 -343.74434894 610.20027149 C-358.18049031 610.13838224 -372.61670641 610.10083038 -387.05294126 610.06867874 C-392.12395802 610.05681138 -397.19490265 610.03859377 -402.2658788 610.01516366 C-405.41363145 610.00138098 -408.56138829 609.99150555 -411.70915794 609.98252869 C-413.17456145 609.97743998 -414.63996001 609.97059919 -416.10534668 609.96192551 C-418.09734129 609.95031982 -420.08937113 609.94530616 -422.0813942 609.94068909 C-423.19877503 609.93587084 -424.31615587 609.93105259 -425.46739674 609.92608833 C-427.90023772 609.75767995 -427.90023772 609.75767995 -428.95869827 611.04075623 C-431.15242204 611.18731926 -433.35058474 611.26826155 -435.54854202 611.32200623 C-436.20826508 611.34041565 -436.86798813 611.35882507 -437.54770279 611.37779236 C-439.66377497 611.43670112 -441.77992919 611.4894382 -443.89619827 611.54075623 C-446.67632 611.60834069 -449.45617993 611.68204713 -452.23604202 611.75950623 C-453.47603958 611.78979919 -454.71603714 611.82009216 -455.99361038 611.8513031 C-458.88770732 611.84306461 -458.88770732 611.84306461 -460.95869827 613.04075623 C-460.73374966 609.44157849 -459.62767053 607.47577975 -457.39619827 604.79075623 C-452.27112975 598.35636363 -449.29761866 590.49824339 -445.95869827 583.04075623 C-445.29869827 583.04075623 -444.63869827 583.04075623 -443.95869827 583.04075623 C-443.74213577 582.14356873 -443.74213577 582.14356873 -443.52119827 581.22825623 C-443.07145438 579.47925218 -442.52977486 577.753986 -441.95869827 576.04075623 C-441.29869827 576.04075623 -440.63869827 576.04075623 -439.95869827 576.04075623 C-439.95869827 574.72075623 -439.95869827 573.40075623 -439.95869827 572.04075623 C-439.29869827 572.04075623 -438.63869827 572.04075623 -437.95869827 572.04075623 C-437.85557327 571.33950623 -437.75244827 570.63825623 -437.64619827 569.91575623 C-436.86510825 566.64937975 -435.53811084 563.99357103 -433.95869827 561.04075623 C-433.29869827 561.04075623 -432.63869827 561.04075623 -431.95869827 561.04075623 C-431.95869827 559.72075623 -431.95869827 558.40075623 -431.95869827 557.04075623 C-431.29869827 557.04075623 -430.63869827 557.04075623 -429.95869827 557.04075623 C-429.79047562 555.96761169 -429.79047562 555.96761169 -429.61885452 554.87278748 C-428.91413822 551.84959624 -427.82582029 549.47752934 -426.39619827 546.72825623 C-425.94115921 545.84524841 -425.48612015 544.9622406 -425.01729202 544.05247498 C-424.66795609 543.38860779 -424.31862015 542.7247406 -423.95869827 542.04075623 C-423.29869827 542.04075623 -422.63869827 542.04075623 -421.95869827 542.04075623 C-421.95869827 540.72075623 -421.95869827 539.40075623 -421.95869827 538.04075623 C-421.29869827 538.04075623 -420.63869827 538.04075623 -419.95869827 538.04075623 C-419.95869827 536.72075623 -419.95869827 535.40075623 -419.95869827 534.04075623 C-419.29869827 534.04075623 -418.63869827 534.04075623 -417.95869827 534.04075623 C-417.95869827 532.72075623 -417.95869827 531.40075623 -417.95869827 530.04075623 C-417.29869827 530.04075623 -416.63869827 530.04075623 -415.95869827 530.04075623 C-415.86588577 529.52899841 -415.77307327 529.0172406 -415.67744827 528.48997498 C-414.67592061 525.07716062 -413.06800719 522.0101545 -411.45869827 518.85325623 C-411.10630081 518.15563171 -410.75390335 517.4580072 -410.39082718 516.73924255 C-405.35350796 506.81393177 -400.13722048 496.97956552 -394.77119827 487.22825623 C-392.81375752 483.66100765 -390.95208002 480.06205844 -389.14619827 476.41575623 C-385.61314684 469.28524878 -381.87164463 462.26986283 -378.13203812 455.24632263 C-376.23522417 451.6808176 -374.34729252 448.11061978 -372.45869827 444.54075623 C-371.70744858 443.12145766 -370.95614646 441.70218685 -370.20479202 440.28294373 C-369.83338089 439.58137146 -369.46196976 438.87979919 -369.07930374 438.15696716 C-367.96789264 436.05811935 -366.85594507 433.95955659 -365.74385452 431.86106873 C-365.0029236 430.46265533 -364.26203831 429.06421777 -363.52119827 427.66575623 C-363.15397659 426.97256287 -362.78675491 426.27936951 -362.4084053 425.56517029 C-359.97219181 420.96331626 -357.54612903 416.35621045 -355.12422562 411.74681091 C-351.3645225 404.59156813 -347.57679787 397.45371359 -343.73604202 390.34153748 C-338.88842815 381.338826 -334.06430437 372.32679604 -329.52119827 363.16575623 C-322.34302143 348.6930895 -314.61836366 334.4920247 -306.9997139 320.24778748 C-302.55035336 311.92667101 -298.13276387 303.5895153 -293.74483109 295.23582458 C-291.7069362 291.35718749 -289.66413403 287.48144303 -287.60322952 283.61497498 C-283.88300165 276.63190476 -280.22433244 269.62941249 -276.70869827 262.54075623 C-273.3428156 255.75957599 -269.76685831 249.15974348 -265.97041702 242.61106873 C-261.23766797 234.38214846 -256.93576001 226.0493292 -252.96553421 217.42405701 C-251.1478448 213.48350033 -249.27565013 209.72023375 -246.95869827 206.04075623 C-240.0399899 194.02139424 -233.72491522 181.64453113 -227.56416702 169.22434998 C-225.66641509 165.46116793 -223.65822648 161.76978062 -221.62276077 158.07981873 C-216.90656034 149.46666395 -212.28304718 140.79512317 -207.95869827 131.97825623 C-205.65715332 127.31794558 -203.1578746 122.80328245 -200.58369827 118.29075623 C-197.57312672 113.00702414 -194.71090077 107.68245071 -192.02119827 102.22825623 C-184.68399194 87.35387015 -176.77316542 72.77805968 -168.86836624 58.19944763 C-165.85232909 52.62283541 -162.91674533 47.02161622 -160.10493851 41.33934021 C-158.34579408 37.81168423 -156.49951639 34.332108 -154.64619827 30.85325623 C-154.07361282 29.77467346 -154.07361282 29.77467346 -153.48945999 28.67430115 C-151.56645302 25.05407981 -149.63706821 21.43728735 -147.70479202 17.82200623 C-147.16882401 16.81883362 -147.16882401 16.81883362 -146.62202835 15.7953949 C-145.95217912 14.54247916 -145.28150433 13.29000429 -144.60982132 12.03807068 C-142.66392222 8.40164926 -140.79700018 4.73251265 -138.95869827 1.04075623 C-121.39921076 0.90992169 -103.83972015 0.77951268 -86.28022575 0.6496048 C-78.12633618 0.58927122 -69.97244767 0.52880046 -61.81856155 0.46800232 C-54.70839812 0.41498688 -47.5982328 0.36223335 -40.48806512 0.30978918 C-36.72625675 0.2820333 -32.96444943 0.25414975 -29.20264435 0.22595215 C-25.65522236 0.19936566 -22.10779793 0.17313181 -18.5603714 0.14715767 C-16.65145817 0.13309196 -14.74254764 0.118662 -12.83363724 0.10421753 C-10.56981193 0.08776935 -8.30597259 0.07310997 -6.04212189 0.06063843 C-4.0280217 0.04765132 -2.01395099 0.02774228 0 0 Z M-74.43916702 20.02513123 C-80.73363722 21.09600243 -86.8977605 21.39650453 -93.27119827 21.54075623 C-112.48253906 21.10451591 -112.48253906 21.10451591 -128.84566116 29.00291443 C-134.2967828 35.53116023 -138.45693523 42.69306242 -142.58369827 50.10325623 C-146.42634432 56.9420638 -150.27156296 63.69108353 -154.69404984 70.17381287 C-156.24713936 72.46656878 -157.64871438 74.82354211 -159.02119827 77.22825623 C-161.29591305 81.18384431 -163.59732547 85.11897128 -165.94307327 89.03294373 C-189.37176215 127.9275136 -189.37176215 127.9275136 -206.14619827 169.91575623 C-211.39279952 187.20156699 -217.00886305 204.3611517 -223.95869827 221.04075623 C-224.28869827 222.03075623 -224.61869827 223.02075623 -224.95869827 224.04075623 C-226.81636429 224.52513123 -226.81636429 224.52513123 -229.15010452 224.79075623 C-234.73498235 225.87747163 -236.79865325 228.46445356 -239.89619827 233.04075623 C-240.39998001 233.74772644 -240.90376175 234.45469666 -241.4228096 235.18309021 C-245.98654784 241.73893071 -249.8488889 248.65800083 -253.60713577 255.69700623 C-255.68974867 259.59317819 -257.94364898 263.35014896 -260.27119827 267.10325623 C-265.02757563 274.83962328 -269.08910436 282.92709135 -273.23360062 291.00218201 C-275.95881195 296.28451943 -278.70100648 301.46605622 -281.89619827 306.47825623 C-285.95680523 312.86045217 -289.58645211 319.46394235 -293.20869827 326.10325623 C-293.81189896 327.19243347 -294.41509964 328.28161072 -295.03657913 329.40379333 C-298.40282576 335.62494016 -301.0317737 341.70037794 -303.13545609 348.45310974 C-305.91118812 357.17789734 -311.0613208 364.93428644 -315.89229202 372.63450623 C-318.0246452 376.1494627 -319.98424397 379.71584502 -321.89619827 383.35325623 C-327.60257859 394.20143297 -333.47257294 404.92255045 -340.15010452 415.20872498 C-342.70759688 419.21343763 -345.13524518 423.2923239 -347.56123734 427.37767029 C-349.28450352 430.27397698 -351.02450595 433.14265636 -352.85322952 435.97434998 C-364.29954437 453.73421112 -373.13570802 473.49980734 -381.05537796 493.04856873 C-385.44864226 503.88977524 -390.03830883 514.54020424 -395.20869827 525.04075623 C-399.11177125 532.97679843 -402.52630895 540.88458206 -405.51240921 549.2040863 C-409.75702811 560.682081 -415.1352194 571.70117568 -420.32075882 582.77610779 C-420.69121826 583.57013504 -421.0616777 584.36416229 -421.44336319 585.18225098 C-422.14894242 586.69294789 -422.8580484 588.20200384 -423.57107925 589.709198 C-425.34502803 593.22362758 -425.34502803 593.22362758 -425.95869827 597.04075623 C-419.18574153 596.92125853 -412.41289465 596.79651792 -405.64009476 596.66844177 C-403.34486863 596.62561979 -401.04962126 596.58391833 -398.75435257 596.54344177 C-387.00551878 596.33552053 -375.2812334 596.06346621 -363.54957962 595.3835907 C-355.83069429 594.94856167 -348.12598691 594.84815181 -340.39619827 594.85325623 C-339.32122589 594.85067307 -339.32122589 594.85067307 -338.2245369 594.84803772 C-326.99060105 594.83113945 -315.91584536 595.35133426 -304.73970413 596.59275818 C-303.75107376 596.69290222 -302.76244339 596.79304626 -301.74385452 596.89622498 C-300.88670853 596.99572449 -300.02956253 597.095224 -299.14644241 597.19773865 C-296.88345989 597.23138069 -296.88345989 597.23138069 -295.17134476 595.72117615 C-292.90964015 592.58702821 -293.92378713 588.74615391 -294.14619827 585.04856873 C-293.92576304 581.51242025 -293.1563709 579.8001658 -290.95869827 577.04075623 C-289.09151077 576.28294373 -289.09151077 576.28294373 -287.08369827 575.91575623 C-284.38119743 575.02304408 -283.19876169 574.40057085 -281.60054398 572.00511169 C-277.75042939 563.33685371 -275.64799575 554.44151435 -273.55464554 545.23997498 C-271.21775611 535.06033379 -268.12530343 525.61767208 -263.95869827 516.04075623 C-263.44089798 514.84112244 -262.92309769 513.64148865 -262.38960648 512.40550232 C-260.810081 508.79425145 -259.20350638 505.19660692 -257.58369827 501.60325623 C-257.30178635 500.97656036 -257.01987442 500.3498645 -256.72941971 499.70417786 C-252.37294551 490.02860779 -247.94793899 480.40854537 -242.95869827 471.04075623 C-242.45209671 470.08556091 -241.94549515 469.1303656 -241.42354202 468.14622498 C-234.43262152 455.71170772 -225.15457572 449.38137186 -211.70869827 445.47825623 C-209.48774388 444.85635994 -207.26462809 444.24285239 -205.04072952 443.63157654 C-202.06949156 442.78842505 -199.14340187 441.81487027 -196.20869827 440.85325623 C-186.13520346 437.78418164 -176.36468512 436.97867295 -165.89619827 436.66575623 C-157.48637449 436.41184634 -149.57051638 435.5199232 -141.39595413 433.50022888 C-125.84472832 429.82838782 -109.02036586 430.89105875 -93.14619827 430.90794373 C-90.87951522 430.907268 -88.61283225 430.90629575 -86.34614944 430.90504456 C-81.62291643 430.90358023 -76.89970248 430.90568111 -72.17647171 430.91038513 C-66.16892351 430.91608161 -60.16142001 430.91279578 -54.15387344 430.90681267 C-49.48144071 430.9031727 -44.80901831 430.90436132 -40.13658524 430.90694046 C-37.92334869 430.90760025 -35.71011116 430.90681507 -33.49687576 430.90446091 C0.85695082 430.87592496 0.85695082 430.87592496 13.66630173 434.04075623 C21.05465546 435.6979366 28.16428576 436.39953609 35.72880173 436.60325623 C57.63555276 437.25156712 88.29745169 441.53617394 104.04130173 458.04075623 C113.15086441 467.78634694 118.68096566 480.60181925 123.6799736 492.80760193 C125.10087252 496.18223686 126.61569666 499.49933834 128.16239548 502.81809998 C135.79752011 519.24756727 141.66072164 535.30983654 145.61063766 553.02928162 C147.94175491 564.96073706 147.94175491 564.96073706 154.84598923 574.52903748 C157.21163212 575.95725756 159.23564806 577.04075623 162.04130173 577.04075623 C164.37114326 581.95427417 164.09110957 585.96890535 163.81864548 591.29856873 C163.80062717 594.01361781 163.80062717 594.01361781 165.25614548 595.72117615 C167.66308414 597.5003752 168.87931174 597.2383366 171.82645798 596.89622498 C172.81508835 596.79608093 173.80371872 596.69593689 174.82230759 596.59275818 C176.44664719 596.41232971 176.44664719 596.41232971 178.10380173 596.22825623 C188.92741511 595.20919222 199.61515028 594.82715085 210.47880173 594.85325623 C211.16507645 594.85280304 211.85135117 594.85234985 212.55842209 594.85188293 C220.36897227 594.85246722 228.14223134 595.06543575 235.93973923 595.51731873 C248.02754849 596.21673244 260.12445287 596.3897987 272.22880173 596.60325623 C274.55107284 596.64658278 276.87333854 596.69020081 279.1955986 596.7341156 C284.81077514 596.83967913 290.42600711 596.94168357 296.04130173 597.04075623 C294.64683032 592.59279328 292.92378389 588.4423406 290.95145798 584.22044373 C290.3310766 582.88161153 289.71114105 581.54257269 289.0915947 580.20335388 C288.76753647 579.50494385 288.44347824 578.80653381 288.10960007 578.08695984 C282.85033767 566.73385946 277.86054756 555.36610087 273.41630173 543.66575623 C269.44442514 533.23736373 264.89395502 523.24989849 259.94486618 513.25193787 C255.97321007 505.16378597 252.46369945 496.962149 249.10380173 488.60325623 C241.33629104 469.39276886 232.39577395 450.50405948 221.27518845 432.98606873 C218.66853061 428.87648233 216.10857294 424.73751535 213.54130173 420.60325623 C212.9820903 419.703974 212.42287888 418.80469177 211.84672165 417.87815857 C207.39266931 410.68400511 203.1869979 403.37972077 199.10624313 395.96897888 C197.24955067 392.60718221 195.3631942 389.26208032 193.47880173 385.91575623 C193.10755173 385.25599792 192.73630173 384.59623962 192.35380173 383.91648865 C185.68510162 371.77497712 185.68510162 371.77497712 178.35380173 360.04075623 C176.21860401 356.70362603 175.00296617 353.28730599 173.72880173 349.54075623 C170.91006568 341.29529472 167.07657787 333.74806173 163.04130173 326.04075623 C162.29614837 324.59563017 161.55136078 323.15031545 160.80692673 321.70481873 C157.50610871 315.34089299 154.14644446 309.09073863 150.29130173 303.04075623 C146.37734739 296.83912281 143.06615208 290.38027797 139.72880173 283.85325623 C135.39307189 275.38281561 130.85453898 267.15481163 125.78861618 259.10032654 C123.11856547 254.84909826 120.70131969 250.57371567 118.41630173 246.10325623 C115.52971047 240.58867875 112.01667391 235.98981104 107.95927048 231.28294373 C106.04130173 229.04075623 106.04130173 229.04075623 104.04130173 226.04075623 C102.01043166 225.47215117 102.01043166 225.47215117 99.72880173 225.10325623 C96.56508572 224.12575377 95.3317819 223.54172781 93.64579391 220.63401794 C93.27615524 219.65191345 92.90651657 218.66980896 92.52567673 217.65794373 C92.11019577 216.57682312 91.69471481 215.49570251 91.26664352 214.38182068 C90.66009933 212.72799377 90.66009933 212.72799377 90.04130173 211.04075623 C89.66465378 210.05486511 89.28800583 209.068974 88.89994431 208.0532074 C87.7728763 205.07949139 86.68201085 202.0950179 85.60380173 199.10325623 C85.21619675 198.03075623 84.82859177 196.95825623 84.42924118 195.85325623 C81.63506871 187.99873946 79.18748728 180.09217993 77.06888962 172.02928162 C69.14716307 142.42767562 50.83831672 112.69110513 34.73856735 86.80393982 C32.09566772 82.50124447 29.60332654 78.11522236 27.10380173 73.72825623 C23.32346789 67.13699401 19.32675292 60.73867729 15.16239548 54.38450623 C12.94888379 50.89506606 10.9223368 47.33863422 8.91630173 43.72825623 C2.16768696 31.52721854 2.16768696 31.52721854 -9.02119827 23.91575623 C-18.83491999 21.39626194 -29.49289549 21.77829359 -39.5544014 21.5231781 C-45.95657419 21.31281532 -52.08529539 20.65595793 -58.38472366 19.4828949 C-63.99634958 18.51897054 -68.8648861 18.98626448 -74.43916702 20.02513123 Z " fill="#8DACFE" transform="translate(704.9586982727051,311.95924377441406)"/>
<path d="M0 0 C0.66 0 1.32 0 2 0 C2 1.32 2 2.64 2 4 C2.66 4 3.32 4 4 4 C4.37511719 5.02738281 4.75023437 6.05476563 5.13671875 7.11328125 C7.79985926 14.34543237 10.5673446 21.43423004 13.84765625 28.4140625 C15.45360271 32.01791523 16.7234962 35.71989807 18.02734375 39.44140625 C18.91863625 41.78597085 19.94064481 43.91799126 21.125 46.125 C23.29290222 50.2388932 24.19862309 54.44480494 25 59 C25.66 59 26.32 59 27 59 C27.32613281 60.02480469 27.65226563 61.04960937 27.98828125 62.10546875 C28.42936247 63.46625123 28.87078693 64.82692249 29.3125 66.1875 C29.52583984 66.86103516 29.73917969 67.53457031 29.95898438 68.22851562 C31.24693088 72.16924747 32.7655929 75.47817828 35 79 C35.67313139 80.81745475 36.34337292 82.63605308 36.99609375 84.4609375 C38.28258695 87.71471407 39.80061884 90.84703096 41.3125 94 C44.18967721 100.03315951 46.64446946 106.14453301 48.93408203 112.421875 C50.50578613 116.72360467 52.22284712 120.90396411 54.13671875 125.0625 C55.00820129 127.01840651 55.76550846 128.98898574 56.5 131 C58.11851949 135.43102877 60.06750533 139.69917145 62 144 C63.33885261 147.07936101 64 148.63753532 64 152 C64.66 152 65.32 152 66 152 C66.24234375 152.78503906 66.4846875 153.57007813 66.734375 154.37890625 C68.86134297 161.2660039 68.86134297 161.2660039 72.0625 167.6875 C73.99491441 170.99130528 75.02822202 173.98291185 76.14453125 177.609375 C77.08757016 180.24471661 78.30471928 182.59595838 79.625 185.0625 C81.9300038 189.48561539 82.72434564 193.03822152 83 198 C83.66 198 84.32 198 85 198 C85.93965167 200.47836929 86.8767519 202.95765692 87.8125 205.4375 C88.07353516 206.12521484 88.33457031 206.81292969 88.60351562 207.52148438 C90.53580244 212.65039382 92.26370824 217.79112472 94 223 C75.52 223 57.04 223 38 223 C32.8600794 210.1501985 27.76164378 197.29747968 22.8125 184.375 C22.1711871 182.70213137 21.52982878 181.02928015 20.88842773 179.35644531 C19.90525712 176.79204342 18.92226278 174.22757497 17.93995667 171.6628418 C15.99802172 166.59446077 14.04695841 161.52972667 12.08699036 156.46829224 C10.86525823 153.31205077 9.64734489 150.15434366 8.43002319 146.99639893 C7.85462203 145.50643236 7.27751093 144.01712495 6.69863892 142.52850342 C5.89997438 140.47386394 5.10748488 138.41694474 4.31640625 136.359375 C3.86724854 135.19889648 3.41809082 134.03841797 2.95532227 132.84277344 C2 130 2 130 2 127 C1.34 127 0.68 127 0 127 C-0.10618652 127.83023682 -0.21237305 128.66047363 -0.32177734 129.51586914 C-1.08803685 133.45225844 -2.38688056 137.03124463 -3.8515625 140.74609375 C-4.14252808 141.49783875 -4.43349365 142.24958374 -4.73327637 143.02410889 C-5.6918799 145.49733628 -6.65841537 147.96738211 -7.625 150.4375 C-8.29729514 152.1674982 -8.96899826 153.89772657 -9.64013672 155.62817383 C-11.04309128 159.24449495 -12.448631 162.85979735 -13.85546875 166.47460938 C-15.97192449 171.91960285 -18.06700598 177.37264155 -20.15625 182.828125 C-20.49127533 183.70239639 -20.82630066 184.57666779 -21.17147827 185.47743225 C-22.47080962 188.86836292 -23.77002432 192.25933644 -25.06719971 195.65109253 C-25.9624209 197.9906875 -26.85989163 200.3294088 -27.7578125 202.66796875 C-28.01252319 203.33536072 -28.26723389 204.00275269 -28.52966309 204.69036865 C-30.89900022 210.85151615 -33.45743159 216.89783581 -36 223 C-53.16 223 -70.32 223 -88 223 C-87.67 220.69 -87.34 218.38 -87 216 C-86.34 216 -85.68 216 -85 216 C-84.88785156 215.195625 -84.88785156 215.195625 -84.7734375 214.375 C-82.92032397 203.32898991 -78.79326134 192.61129856 -73.0859375 182.99609375 C-71.58487291 180.23694265 -70.67637434 177.40031786 -69.75390625 174.40625 C-68.58795668 170.68487727 -67.21218477 167.04245625 -65.8671875 163.3828125 C-65.21769514 161.59817134 -64.6005651 159.8016953 -64 158 C-63.34 158 -62.68 158 -62 158 C-61.86722656 157.37351562 -61.73445312 156.74703125 -61.59765625 156.1015625 C-61.42105469 155.28429687 -61.24445312 154.46703125 -61.0625 153.625 C-60.88847656 152.81289063 -60.71445312 152.00078125 -60.53515625 151.1640625 C-60 149 -60 149 -59 147 C-58.34 147 -57.68 147 -57 147 C-56.814375 145.72125 -56.62875 144.4425 -56.4375 143.125 C-55.37287897 137.74789233 -53.54352114 132.77978973 -51.5625 127.6875 C-51.26206787 126.91100098 -50.96163574 126.13450195 -50.65209961 125.33447266 C-49.40358499 122.19265468 -48.1695005 119.27971757 -46.4140625 116.3828125 C-44.65763979 113.42309467 -43.77865653 110.48575849 -42.8125 107.1875 C-42.29623047 105.44533203 -42.29623047 105.44533203 -41.76953125 103.66796875 C-41.38861328 102.34732422 -41.38861328 102.34732422 -41 101 C-40.34 101 -39.68 101 -39 101 C-38.88269531 100.15179687 -38.76539063 99.30359375 -38.64453125 98.4296875 C-37.09646715 90.19211002 -33.82056646 82.12240455 -29.90234375 74.7265625 C-28.42263624 71.89526068 -27.23179786 68.94560358 -26 66 C-25.53722656 64.948125 -25.07445312 63.89625 -24.59765625 62.8125 C-22.87358614 58.79356356 -21.428048 54.69417013 -20 50.5625 C-18.07133288 45.01255945 -16.08143276 39.4947347 -14 34 C-13.34 34 -12.68 34 -12 34 C-11.7985437 33.14656006 -11.7985437 33.14656006 -11.59301758 32.27587891 C-10.9995097 29.99811833 -10.28633722 27.80830102 -9.51171875 25.5859375 C-9.21918213 24.74643555 -8.92664551 23.90693359 -8.62524414 23.04199219 C-8.31578857 22.16188477 -8.00633301 21.28177734 -7.6875 20.375 C-7.21654907 19.03163574 -7.21654907 19.03163574 -6.73608398 17.66113281 C-4.63770353 11.71274624 -2.46140346 5.80952369 0 0 Z " fill="#2B36B8" transform="translate(639,418)"/>
<path d="M0 0 C3.59285921 0.16721008 7.17539731 0.21073465 10.77197266 0.23730469 C12.66351074 0.26377075 12.66351074 0.26377075 14.59326172 0.29077148 C16.98175217 0.32163823 19.37062879 0.33265638 21.75927734 0.31860352 C32.36202233 0.52310984 40.72543591 4.75937525 48.25244141 12.15136719 C50.011453 14.41551668 51.54653542 16.78366794 53.06494141 19.21386719 C56.20203247 24.08412812 59.41642589 28.80155598 62.93994141 33.40136719 C66.35460335 37.87863372 69.40969437 42.46374696 72.37744141 47.24511719 C74.53723663 50.59279979 76.84849565 53.80461556 79.18994141 57.02636719 C90.16420038 72.20305006 99.41919483 88.56871755 107.06494141 105.65136719 C107.36103302 106.30635193 107.65712463 106.96133667 107.96218872 107.63616943 C113.02535347 118.86495542 117.44351333 130.26447365 121.43725586 141.91503906 C124.73484881 151.37867456 128.67288446 160.74062534 134.87744141 168.71386719 C138.68667027 173.73799961 142.25244141 180.80441401 142.25244141 187.15136719 C141.59244141 187.15136719 140.93244141 187.15136719 140.25244141 187.15136719 C137.80316182 192.04992636 137.27653033 197.04619557 138.93994141 202.33886719 C140.32670703 204.36233239 140.32670703 204.36233239 142.75244141 206.58886719 C145.2042808 209.10200257 146.21404271 210.84737134 147.25244141 214.15136719 C144.07700016 213.86269071 141.85999002 213.61276594 139.28759766 211.65917969 C136.45575674 208.16965594 135.04231153 204.44792308 133.43994141 200.27636719 C133.09664795 199.40012695 132.75335449 198.52388672 132.3996582 197.62109375 C128.25304139 186.84198863 124.88436956 175.81716847 121.52978516 164.77197266 C121.08323949 163.30251844 120.63498988 161.83358066 120.18481445 160.36523438 C119.61354879 158.49776491 119.05169486 156.62742324 118.49072266 154.75683594 C115.9191532 147.26926934 112.34970269 140.16262569 108.90869141 133.04199219 C108.50269714 132.20083862 108.09670288 131.35968506 107.67840576 130.49304199 C95.30188895 104.87572396 95.30188895 104.87572396 81.25244141 80.15136719 C80.68976563 79.22831787 80.68976563 79.22831787 80.11572266 78.28662109 C78.46066916 75.57624694 76.7910502 72.87564126 75.10791016 70.18261719 C73.09957944 66.90163901 71.20003165 63.56631833 69.31494141 60.21386719 C66.27260524 54.81200038 63.0110175 49.59655436 59.61254883 44.41259766 C56.94239056 40.30988194 54.50441201 36.11683593 52.12744141 31.83886719 C45.77818062 20.34975773 45.77818062 20.34975773 35.25244141 13.15136719 C25.22685275 10.81861584 14.68128872 10.81243335 4.43676758 10.58056641 C-1.8948053 10.40439576 -7.93568913 9.75660817 -14.16479492 8.59570312 C-19.78005434 7.62965982 -24.64987696 8.0961543 -30.22802734 9.13574219 C-36.52249755 10.20661339 -42.68662082 10.50711549 -49.06005859 10.65136719 C-68.45964077 10.26242557 -68.45964077 10.26242557 -84.95068359 18.43652344 C-89.89939437 25.15128177 -94.0475345 32.03113979 -98.00952148 39.36108398 C-100.63891993 44.21508318 -103.40658362 48.91111641 -106.43505859 53.52636719 C-109.67198128 58.46510545 -112.74166183 63.46301807 -115.68115234 68.58496094 C-117.32972164 71.45031126 -119.0208274 74.28853164 -120.72021484 77.12402344 C-144.15563347 116.0278501 -144.15563347 116.0278501 -160.93505859 158.02636719 C-175.98418902 207.60826007 -175.98418902 207.60826007 -182.74755859 213.15136719 C-185.99755859 213.90136719 -185.99755859 213.90136719 -188.74755859 214.15136719 C-187.38068638 210.16465656 -185.59560767 207.26642086 -182.74755859 204.15136719 C-182.08755859 204.15136719 -181.42755859 204.15136719 -180.74755859 204.15136719 C-179.45585283 200.27624989 -179.1190306 196.18039279 -179.74755859 192.15136719 C-181.04700603 190.4581478 -182.37682074 188.78740914 -183.74755859 187.15136719 C-182.90213048 179.28754378 -178.94029466 171.49702567 -174.31005859 165.21386719 C-167.70729057 156.15458547 -164.28622414 145.94646971 -160.62255859 135.46386719 C-155.88061158 121.93152056 -149.98279365 109.05193199 -143.74755859 96.15136719 C-143.37824219 95.38099121 -143.00892578 94.61061523 -142.62841797 93.81689453 C-134.57072522 77.05387397 -124.18938557 61.73125821 -113.45849609 46.57714844 C-111.74310904 44.14505858 -110.05362951 41.69594596 -108.36694336 39.24389648 C-105.08164795 34.46966529 -101.73799175 29.76773673 -98.19677734 25.17871094 C-96.44983372 22.73487337 -94.9670039 20.1724912 -93.43505859 17.58886719 C-88.51003082 9.75655429 -81.36601949 4.45396868 -72.74755859 1.15136719 C-69.31906345 0.52224653 -65.930759 0.38757436 -62.45068359 0.28808594 C-61.47224487 0.24648346 -60.49380615 0.20488098 -59.48571777 0.16201782 C-56.32338416 0.03430266 -53.16099626 -0.06494438 -49.99755859 -0.16113281 C-47.80907206 -0.23938628 -45.62059551 -0.31791953 -43.43212891 -0.39672852 C-28.90345011 -0.88452284 -14.51579467 -0.86124162 0 0 Z " fill="#7EAEFF" transform="translate(660.74755859375,323.8486328125)"/>
<path d="M0 0 C2.87009869 3.40807225 5.09345171 6.77087005 7.13671875 10.7265625 C7.99644287 12.38449829 7.99644287 12.38449829 8.87353516 14.07592773 C9.47214355 15.24712158 10.07075195 16.41831543 10.6875 17.625 C11.31297127 18.84253804 11.93845969 20.06006726 12.56396484 21.27758789 C26.21357533 47.92407647 26.21357533 47.92407647 28.875 56.875 C30.62214368 62.63736839 33.39078772 67.66911891 36.25 72.9375 C42.35030878 84.19426536 46.9551812 95.86554359 51 108 C44.83454854 112.11030097 36.32936026 111.16913012 29.125 111.24609375 C26.98176771 111.27909477 24.83853864 111.31230513 22.6953125 111.34570312 C19.37470222 111.39250986 16.05409838 111.43684904 12.73339844 111.47680664 C-5.15839332 111.7018691 -23.18906084 112.09782186 -40.875 115.0625 C-47.68363931 116.07368406 -54.50922437 116.62194843 -61.375 117.0625 C-62.49374512 117.16119385 -63.61249023 117.2598877 -64.76513672 117.36157227 C-70.71801743 117.67870835 -74.18603288 117.50932859 -78.7890625 113.49609375 C-79.88977843 112.3594021 -80.97228533 111.2030985 -82 110 C-77.89145727 107.26097151 -74.2876117 107.27945309 -69.4375 106.875 C-68.44459961 106.79080811 -67.45169922 106.70661621 -66.42871094 106.61987305 C-47.96700419 105.24236287 -29.10925336 105.34624295 -10.64111328 106.57348633 C-0.2197437 107.24318366 10.23075352 107.37403732 20.66918945 107.60717773 C29.47947971 107.81406277 38.21980272 108.19950403 47 109 C46.25169922 107.46472656 46.25169922 107.46472656 45.48828125 105.8984375 C40.5746414 95.71976659 35.9317644 85.4319453 31.4375 75.0625 C31.15573914 74.41252045 30.87397827 73.76254089 30.5836792 73.09286499 C27.23128559 65.34272192 23.99276433 57.56030513 20.9375 49.6875 C17.51419187 40.87770624 13.47163806 32.40189682 9.29858398 23.92456055 C0 4.98529385 0 4.98529385 0 0 Z " fill="#7EAEFF" transform="translate(954,800)"/>
<path d="M0 0 C1.24175465 3.72526394 0.61518715 4.51513995 -0.95703125 8.0234375 C-1.40522217 9.03374023 -1.85341309 10.04404297 -2.31518555 11.08496094 C-2.80929932 12.17067383 -3.30341309 13.25638672 -3.8125 14.375 C-4.31370361 15.49680664 -4.81490723 16.61861328 -5.33129883 17.77441406 C-8.49997018 24.82477014 -11.80919983 31.79834462 -15.1875 38.75 C-18.33519891 45.23348315 -21.11001146 51.7244923 -23.5625 58.5 C-29.80792606 75.72622581 -37.80680858 92.61361716 -46 109 C-45.27184082 108.93361328 -44.54368164 108.86722656 -43.79345703 108.79882812 C-34.96016379 108.05100722 -26.15561071 107.75205068 -17.29580688 107.5541687 C-1.79492124 107.22299914 -1.79492124 107.22299914 13.6875 106.4375 C32.48352966 105.282574 51.67293914 105.28387974 70.4375 106.875 C71.37754883 106.95339111 72.31759766 107.03178223 73.28613281 107.11254883 C79.60207743 107.73471829 79.60207743 107.73471829 83 110 C79.91216571 113.5498742 77.02786414 116.60187826 72.2890625 117.53222656 C69.1581834 117.57314623 66.11921707 117.39882795 63 117.125 C61.8665918 117.05345703 60.73318359 116.98191406 59.56542969 116.90820312 C49.90157503 116.23766089 40.29256027 115.07281378 30.703125 113.71875 C14.6127284 111.58712819 -1.60168357 111.69466527 -17.80322266 111.44775391 C-21.12669634 111.39578738 -24.45005448 111.33868242 -27.7734375 111.28125 C-28.78191742 111.26767456 -29.79039734 111.25409912 -30.82943726 111.2401123 C-45.74682022 110.9790467 -45.74682022 110.9790467 -49 108.4375 C-49.33 107.963125 -49.66 107.48875 -50 107 C-44.34196848 92.57512843 -38.58871647 78.36720197 -30.89453125 64.890625 C-29.33238625 61.92698112 -28.32692419 58.97480429 -27.34765625 55.7734375 C-24.67927558 47.47497435 -20.75870216 39.78151811 -16.91015625 31.98144531 C-15.6262067 29.37744732 -14.35525069 26.76740857 -13.0859375 24.15625 C-9.05095411 15.89796431 -4.99932489 7.73078561 0 0 Z " fill="#7EAEFF" transform="translate(325,800)"/>
<path d="M0 0 C3.04483802 1.52241901 3.55835239 3.95036084 5 7 C7.75831717 12.71328455 10.80007071 18.18496347 14.0625 23.625 C25 41.92372261 25 41.92372261 25 46 C25.66 46 26.32 46 27 46 C27 47.32 27 48.64 27 50 C27.66 50 28.32 50 29 50 C29.35191406 50.72703125 29.70382812 51.4540625 30.06640625 52.203125 C32.70764554 57.58215018 35.43928652 62.84654925 38.5 68 C40.77544936 71.83207484 42.87006991 75.67679223 44.8125 79.6875 C47.32333562 84.82391373 50.13723818 89.71843812 53.0625 94.625 C63.32029916 111.8929627 63.32029916 111.8929627 63 118 C59.07530488 118.36313905 55.75886888 118.25295629 52 117 C49.42143533 114.05306895 48.17555035 110.70353347 46.79833984 107.06396484 C45.91113898 104.77026573 44.94249789 102.52273386 43.95703125 100.26953125 C41.99737937 95.78426769 40.07946065 91.28265352 38.17333984 86.77441406 C36.29153141 82.32479461 34.39798611 77.88023952 32.5 73.4375 C32.13334229 72.57664795 31.76668457 71.7157959 31.38891602 70.82885742 C29.11012306 65.50469134 26.74062783 60.23013153 24.31811523 54.9699707 C20.86069188 47.4502341 17.63035961 40.17053783 16 32 C15.34 32 14.68 32 14 32 C14 30.68 14 29.36 14 28 C13.34 28 12.68 28 12 28 C12 26.68 12 25.36 12 24 C11.01 23.67 10.02 23.34 9 23 C8.0078125 21.03125 8.0078125 21.03125 7.125 18.5 C5.47006376 14.02269188 3.44341945 10.0732932 0.953125 6.0078125 C0 4 0 4 0 0 Z " fill="#7CAAFE" transform="translate(988,811)"/>
<path d="M0 0 C3.92554677 1.67044543 5.36645222 3.14754981 7 7 C7.40445633 8.69713048 7.75740258 10.40722459 8.0625 12.125 C8.68273802 15.67791258 8.68273802 15.67791258 10 19 C10 21.64 10 24.28 10 27 C3.07 26.67 -3.86 26.34 -11 26 C-12.340625 23.421875 -13.68125 20.84375 -15.0625 18.1875 C-15.48926025 17.37949951 -15.91602051 16.57149902 -16.35571289 15.73901367 C-16.6830542 15.09681885 -17.01039551 14.45462402 -17.34765625 13.79296875 C-17.68804932 13.1383667 -18.02844238 12.48376465 -18.37915039 11.80932617 C-19 10 -19 10 -18 7 C-12.70142497 1.47670862 -7.72194963 -1.64934846 0 0 Z " fill="#A5AEFF" transform="translate(1021,901)"/>
<path d="M0 0 C0.66 0 1.32 0 2 0 C2 0.66 2 1.32 2 2 C4.31 2.66 6.62 3.32 9 4 C6.62654047 8.54053128 3.90946427 12.46199731 0.75 16.5 C-3.08214232 21.52812138 -6.10888194 26.62722038 -8.99047852 32.24267578 C-11.21522305 36.57023121 -13.62252481 40.73907847 -16.1875 44.875 C-20.97704458 52.64977958 -25.10323259 60.75897786 -29.21948242 68.90576172 C-32.77178811 75.87334218 -36.68449153 82.47756919 -41 89 C-41.33 88.34 -41.66 87.68 -42 87 C-41.35083008 85.1875 -41.35083008 85.1875 -40.26953125 83 C-39.88063721 82.19997559 -39.49174316 81.39995117 -39.09106445 80.57568359 C-38.66913818 79.72570801 -38.24721191 78.87573242 -37.8125 78 C-34.04809834 70.30370796 -34.04809834 70.30370796 -30.8125 62.375 C-29.61186293 59.20637346 -28.16178092 56.6172972 -26.21484375 53.84765625 C-22.99273705 49.09815877 -20.31922887 44.18906316 -17.75 39.0625 C-17.1003125 37.81823242 -17.1003125 37.81823242 -16.4375 36.54882812 C-14.33327592 32.3696053 -12.8005016 28.63436202 -12.046875 24.00390625 C-11.06656121 18.24991499 -8.49978224 13.82037745 -5.5 8.875 C-5.00113281 8.01390625 -4.50226563 7.1528125 -3.98828125 6.265625 C-1.26045697 1.65830786 -1.26045697 1.65830786 0 0 Z " fill="#7EAEFF" transform="translate(462,534)"/>
<path d="M0 0 C0.74958984 0.00451172 1.49917969 0.00902344 2.27148438 0.01367188 C4.11852383 0.02543646 5.96552213 0.04337135 7.8125 0.0625 C7.8125 0.7225 7.8125 1.3825 7.8125 2.0625 C8.81410156 2.14371094 9.81570313 2.22492187 10.84765625 2.30859375 C15.24167273 2.93631039 18.50861985 4.83266232 22.25 7.125 C22.88615234 7.50205078 23.52230469 7.87910156 24.17773438 8.26757812 C25.72882902 9.18890502 27.27157343 10.12426593 28.8125 11.0625 C28.8125 11.3925 28.8125 11.7225 28.8125 12.0625 C22.5425 12.0625 16.2725 12.0625 9.8125 12.0625 C9.8125 12.7225 9.8125 13.3825 9.8125 14.0625 C1.5625 14.0625 -6.6875 14.0625 -15.1875 14.0625 C-15.1875 5.8625 -15.1875 5.8625 -11.1875 1.0625 C-7.42449626 -0.19183458 -3.91539091 -0.04445422 0 0 Z " fill="#A5ADFE" transform="translate(266.1875,907.9375)"/>
<path d="M0 0 C2.50022039 2.50022039 3.67688934 3.96373901 5.2265625 6.9765625 C5.6184375 7.729375 6.0103125 8.4821875 6.4140625 9.2578125 C6.81367187 10.03898438 7.21328125 10.82015625 7.625 11.625 C8.42815595 13.18047925 9.23276703 14.73520832 10.0390625 16.2890625 C10.39178223 16.97693848 10.74450195 17.66481445 11.10791016 18.37353516 C11.89472893 19.98803844 11.89472893 19.98803844 13 21 C13.23868431 22.41625648 13.45425883 23.83641921 13.66015625 25.2578125 C14.97625999 32.097656 18.14920845 37.79435596 21.4375 43.875 C22.02337891 44.98875 22.60925781 46.1025 23.21289062 47.25 C26.10476891 52.84006058 26.10476891 52.84006058 29.57055664 58.07324219 C31.07605672 60.10251744 31.98538149 62.00008023 32.9375 64.3359375 C33.27523437 65.15320313 33.61296875 65.97046875 33.9609375 66.8125 C34.30382812 67.658125 34.64671875 68.50375 35 69.375 C35.68557184 71.05026953 36.37303221 72.72476761 37.0625 74.3984375 C37.38734375 75.18959961 37.7121875 75.98076172 38.046875 76.79589844 C38.88278561 78.72894172 39.83889139 80.60908047 40.8125 82.4765625 C41.4003125 83.72566406 41.4003125 83.72566406 42 85 C41.67 85.66 41.34 86.32 41 87 C35.65666153 78.88006269 31.10940627 70.46416902 26.6875 61.8125 C22.3519178 53.34198129 17.81323185 45.11404682 12.74731445 37.05957031 C10.07726374 32.80834203 7.66001796 28.53295945 5.375 24.0625 C2.48025566 18.51892406 -1.06760436 13.93971977 -5.1796875 9.2421875 C-7 7 -7 7 -8 4 C-5.36 2.68 -2.72 1.36 0 0 Z " fill="#7EAEFF" transform="translate(817,534)"/>
<path d="M0 0 C2.32354369 2.97027639 4.24818761 6.03095433 6.1171875 9.3046875 C6.71764893 10.35213135 7.31811035 11.3995752 7.93676758 12.47875977 C8.57638428 13.59951904 9.21600098 14.72027832 9.875 15.875 C11.22866437 18.23671494 12.58475171 20.59703292 13.94140625 22.95703125 C14.45374062 23.84874275 14.45374062 23.84874275 14.97642517 24.75846863 C19.74765589 33.0524029 24.64040542 41.27427417 29.52294922 49.50292969 C30.95093683 51.91705487 32.37005559 54.33611469 33.78515625 56.7578125 C34.43750244 57.87349609 34.43750244 57.87349609 35.10302734 59.01171875 C35.93861557 60.44103972 36.77359556 61.87071647 37.60791016 63.30078125 C39.8587546 67.13658374 42.21327228 70.86487366 44.6875 74.5625 C48.59279407 80.58781085 55 90.65978502 55 98 C55.66 98 56.32 98 57 98 C60.125 104.625 60.125 104.625 59 108 C58.4121875 106.93652344 58.4121875 106.93652344 57.8125 105.8515625 C53.10718351 97.47528789 48.12283198 89.29120209 43.0625 81.125 C37.50010132 72.14195153 32.09441347 63.11278694 27.01660156 53.84765625 C25.18035602 50.51031084 23.30703635 47.19377396 21.4375 43.875 C21.0660083 43.21483887 20.6945166 42.55467773 20.31176758 41.87451172 C13.55088514 29.64945937 13.55088514 29.64945937 6.25 17.75 C2.77989134 12.29193078 0 6.51292077 0 0 Z " fill="#7EAEFF" transform="translate(876,654)"/>
<path d="M0 0 C1.72262976 4.74827433 -0.21741614 7.90702966 -2.15234375 12.33203125 C-4.64602712 17.48887162 -7.73944205 22.29813006 -10.77392578 27.1484375 C-13.73671462 31.89207796 -16.53363635 36.66878588 -19.125 41.625 C-24.75405758 52.37753706 -30.57965423 62.9831221 -37.19140625 73.16796875 C-39.33986187 76.53218112 -41.39261413 79.94719174 -43.4375 83.375 C-46.39493606 88.32595768 -49.36309267 93.26943825 -52.375 98.1875 C-53.00148438 99.21230469 -53.62796875 100.23710938 -54.2734375 101.29296875 C-55.75780723 103.62027243 -57.30600064 105.82274315 -59 108 C-58.39009109 104.44219804 -57.4216319 101.3171411 -56 98 C-55.34 98 -54.68 98 -54 98 C-53.67 96.845 -53.34 95.69 -53 94.5 C-49.42106992 83.84682963 -43.83142835 73.96303973 -37.63598633 64.63525391 C-33.06721955 57.70632766 -29.06439782 50.45703122 -24.9765625 43.23828125 C-22.34334915 38.58909331 -19.65722433 33.97400478 -16.9375 29.375 C-13.24209582 23.12066014 -9.57833053 16.84878348 -5.9375 10.5625 C-5.22098267 9.32669189 -5.22098267 9.32669189 -4.48999023 8.06591797 C-3.82785522 6.92147217 -3.82785522 6.92147217 -3.15234375 5.75390625 C-2.76038818 5.07658447 -2.36843262 4.3992627 -1.96459961 3.70141602 C-1.27569557 2.48628762 -0.62468005 1.24936009 0 0 Z " fill="#7EAEFF" transform="translate(403,654)"/>
<path d="M0 0 C7.26 1.32 14.52 2.64 22 4 C22.33 5.65 22.66 7.3 23 9 C19.93281075 11.6915517 18.07834493 12.3672868 14.015625 12.29296875 C13.08105469 12.28330078 12.14648438 12.27363281 11.18359375 12.26367188 C10.21550781 12.23853516 9.24742187 12.21339844 8.25 12.1875 C7.26644531 12.17396484 6.28289062 12.16042969 5.26953125 12.14648438 C2.84611923 12.11119197 0.42298951 12.05738659 -2 12 C-1.34 8.04 -0.68 4.08 0 0 Z " fill="#9EADFE" transform="translate(410,909)"/>
<path d="M0 0 C3.3 0 6.6 0 10 0 C13.29996794 7.31732022 14.8471188 13.88776065 14 22 C13.34 22.66 12.68 23.32 12 24 C11.56917114 23.2589502 11.56917114 23.2589502 11.12963867 22.50292969 C9.81815756 20.25044832 8.50286856 18.00021326 7.1875 15.75 C6.73568359 14.97269531 6.28386719 14.19539062 5.81835938 13.39453125 C5.37685547 12.64042969 4.93535156 11.88632812 4.48046875 11.109375 C4.07723389 10.41811523 3.67399902 9.72685547 3.25854492 9.01464844 C2.01538542 6.92451347 2.01538542 6.92451347 0.2824707 4.93066406 C-0.14074463 4.29354492 -0.56395996 3.65642578 -1 3 C-0.67 2.01 -0.34 1.02 0 0 Z " fill="#9FAEFF" transform="translate(805,509)"/>
<path d="M0 0 C2.72249092 1.36124546 3.20606404 2.93774139 4.625 5.625 C6.44410672 9.06509291 8.26901535 12.49624443 10.171875 15.890625 C10.9063726 17.2186822 11.64074877 18.54680657 12.375 19.875 C12.91181396 20.81980225 12.91181396 20.81980225 13.45947266 21.78369141 C15.40034129 25.33706133 16.44845102 27.93301312 16 32 C13.69 31.67 11.38 31.34 9 31 C6.88924519 24.06009403 4.89511101 17.09393626 2.96484375 10.1015625 C2.12004578 7.08680173 2.12004578 7.08680173 0.87890625 4.7734375 C0 3 0 3 0 0 Z " fill="#61ACFF" transform="translate(1035,897)"/>
<path d="M0 0 C-0.93627417 2.0422291 -1.8740765 4.08375764 -2.8125 6.125 C-3.33457031 7.26195312 -3.85664063 8.39890625 -4.39453125 9.5703125 C-5.87895223 12.74141134 -7.41906271 15.8761059 -9 19 C-11.47833899 15.28249152 -11.68020249 11.31347919 -11 7 C-9.3095817 3.73990757 -7.95023925 1.66228796 -4.9375 -0.4375 C-3 -1 -3 -1 0 0 Z " fill="#7EAEFF" transform="translate(421,887)"/>
<path d="M0 0 C4.83766699 0.41465717 6.85646376 2.4198615 10 6 C11.56820874 9.13641748 11.38163039 12.57179483 11 16 C9.98828125 18.2578125 9.98828125 18.2578125 9 20 C5.62158164 13.43996435 2.41564545 6.97853129 0 0 Z " fill="#7EAEFF" transform="translate(859,886)"/>
<path d="M0 0 C0.66 0 1.32 0 2 0 C3.70400669 2.92821855 5.38524739 5.868888 7.0625 8.8125 C7.54783203 9.64587891 8.03316406 10.47925781 8.53320312 11.33789062 C8.98759766 12.14033203 9.44199219 12.94277344 9.91015625 13.76953125 C10.33433838 14.50792236 10.75852051 15.24631348 11.19555664 16.00708008 C12 18 12 18 11 21 C9.948125 19.9171875 9.948125 19.9171875 8.875 18.8125 C6.95062125 16.84963368 4.970159 15.23917357 2.75 13.625 C-0.59278217 10.43416248 -0.82242748 8.52809929 -1 4 C-0.34 3.67 0.32 3.34 1 3 C0.67 2.01 0.34 1.02 0 0 Z " fill="#7EA5FE" transform="translate(815,499)"/>
<path d="M0 0 C1.5 1.3125 1.5 1.3125 3 3 C3 3.99 3 4.98 3 6 C3.66 6 4.32 6 5 6 C6.00732399 7.93370231 7.00563288 9.87210306 8 11.8125 C8.8353125 13.43091797 8.8353125 13.43091797 9.6875 15.08203125 C11 18 11 18 11 21 C11.66 21 12.32 21 13 21 C13 21.99 13 22.98 13 24 C13.66 24 14.32 24 15 24 C16.00732399 25.93370231 17.00563288 27.87210306 18 29.8125 C18.556875 30.89144531 19.11375 31.97039063 19.6875 33.08203125 C21 36 21 36 21 39 C21.66 39 22.32 39 23 39 C23 39.99 23 40.98 23 42 C22.34 42 21.68 42 21 42 C20.39414062 40.83726562 19.78828125 39.67453125 19.1640625 38.4765625 C18.31822501 36.8591047 17.47182737 35.24193976 16.625 33.625 C16.180354 32.77534668 15.73570801 31.92569336 15.27758789 31.05029297 C12.95554171 26.63608196 10.59758724 22.24919917 8.14453125 17.90625 C7.46366455 16.7004126 7.46366455 16.7004126 6.76904297 15.47021484 C5.8978567 13.93581526 5.02079863 12.40473099 4.13720703 10.87744141 C2.08556568 7.26438863 0.47008426 4.2060171 0 0 Z " fill="#7FA6FE" transform="translate(963,766)"/>
<path d="M0 0 C4.51228935 3.99659914 7.56518979 8.46728233 10 14 C10 14.99 10 15.98 10 17 C10.66 17 11.32 17 12 17 C12.32613281 17.66386719 12.65226563 18.32773437 12.98828125 19.01171875 C15.73041819 24.56736191 15.73041819 24.56736191 18.8125 29.9375 C20 32 20 32 20 35 C20.66 35 21.32 35 22 35 C21.67 36.32 21.34 37.64 21 39 C20.40574219 37.92105469 19.81148437 36.84210937 19.19921875 35.73046875 C18.36244669 34.21588744 17.52516614 32.701587 16.6875 31.1875 C16.24615723 30.38957031 15.80481445 29.59164062 15.35009766 28.76953125 C11.47365986 21.79112798 7.4756608 14.88713033 3.4050293 8.02026367 C2.9594165 7.26076416 2.51380371 6.50126465 2.0546875 5.71875 C1.65749512 5.04779297 1.26030273 4.37683594 0.85107422 3.68554688 C0 2 0 2 0 0 Z " fill="#819EFE" transform="translate(870,599)"/>
<path d="M0 0 C0.66 0 1.32 0 2 0 C2 2.31 2 4.62 2 7 C10.25 7 18.5 7 27 7 C27 7.33 27 7.66 27 8 C26.10168457 8.02505615 25.20336914 8.0501123 24.27783203 8.07592773 C20.94925131 8.17098693 17.62085006 8.27022421 14.29248047 8.37231445 C12.8511238 8.41566231 11.40971582 8.45733752 9.96826172 8.49731445 C7.89795459 8.55502088 5.82790568 8.61871371 3.7578125 8.68359375 C2.5114502 8.72025146 1.26508789 8.75690918 -0.01904297 8.79467773 C-2.92636942 8.80289479 -2.92636942 8.80289479 -5 10 C-4.49890042 5.61537866 -3.01704885 3.1999003 0 0 Z " fill="#848FF1" transform="translate(249,915)"/>
<path d="M0 0 C1 3 1 3 0.05957031 5.26489258 C-0.42930664 6.13267334 -0.91818359 7.0004541 -1.421875 7.89453125 C-1.95296875 8.85037109 -2.4840625 9.80621094 -3.03125 10.79101562 C-3.5984375 11.78810547 -4.165625 12.78519531 -4.75 13.8125 C-5.84975463 15.77689816 -6.94873492 17.74173007 -8.046875 19.70703125 C-8.56314453 20.62564941 -9.07941406 21.54426758 -9.61132812 22.49072266 C-11.16114329 25.2911798 -12.61013951 28.11750764 -14 31 C-15 28 -15 28 -13.8125 25.1015625 C-13.214375 23.95429687 -12.61625 22.80703125 -12 21.625 C-11.68401855 21.01374268 -11.36803711 20.40248535 -11.04248047 19.77270508 C-10.03970569 17.8422521 -9.02153516 15.92058293 -8 14 C-7.66774414 13.36980957 -7.33548828 12.73961914 -6.99316406 12.09033203 C-1.30080935 1.30080935 -1.30080935 1.30080935 0 0 Z " fill="#7F9EFF" transform="translate(405,620)"/>
<path d="M0 0 C0.33 0 0.66 0 1 0 C1.31991589 4.22888822 0.4369917 6.62785854 -1.625 10.30078125 C-2.16640625 11.27724609 -2.7078125 12.25371094 -3.265625 13.25976562 C-3.83796875 14.26716797 -4.4103125 15.27457031 -5 16.3125 C-5.57234375 17.33923828 -6.1446875 18.36597656 -6.734375 19.42382812 C-8.14692324 21.95464373 -9.56900473 24.47958346 -11 27 C-11.66 27 -12.32 27 -13 27 C-11.61508424 22.28554584 -9.57543917 18.25380588 -7.0625 14.0625 C-4.32801267 9.4813459 -2.01496771 4.94582983 0 0 Z " fill="#83A5FF" transform="translate(362,700)"/>
<path d="M0 0 C0.66 0 1.32 0 2 0 C1.37217337 2.90612532 0.44223357 5.30819641 -0.9375 7.9375 C-2.09104435 10.17819766 -3.13447617 12.3401456 -4.0625 14.6875 C-5.1350578 17.33314257 -6.38547701 19.64548731 -8 22 C-8.66 22 -9.32 22 -10 22 C-9.58650288 17.58936405 -7.70740186 14.80357144 -5.34375 11.203125 C-3.17344685 7.64483728 -1.59272173 3.84388708 0 0 Z " fill="#81A7FF" transform="translate(344,734)"/>
<path d="M0 0 C0.90595644 2.44608238 1.06254376 3.76858809 0.375 6.3125 C-1.08995476 9.17582067 -2.84538321 11.5779197 -4.7578125 14.15234375 C-6.63752194 16.94826376 -7.78423749 19.86461246 -9 23 C-9.33 23 -9.66 23 -10 23 C-10.34071445 18.7100953 -9.38901549 16.32062576 -7.25 12.625 C-6.43402344 11.19607422 -6.43402344 11.19607422 -5.6015625 9.73828125 C-5.07304687 8.83464844 -4.54453125 7.93101562 -4 7 C-3.20746562 5.60465916 -2.41563871 4.20891585 -1.625 2.8125 C-0.820625 1.4203125 -0.820625 1.4203125 0 0 Z " fill="#86A5FF" transform="translate(314,792)"/>
<path d="M0 0 C0.66 0 1.32 0 2 0 C2.25 2.75 2.25 2.75 2 6 C0.7151049 7.38007251 -0.63015802 8.70420353 -2 10 C-3.79919718 12.93070363 -5.41050256 15.95129179 -7 19 C-7.68359375 17.359375 -7.68359375 17.359375 -8 15 C-6.78515625 12.203125 -6.78515625 12.203125 -5.0625 9.25 C-4.49660156 8.26515625 -3.93070312 7.2803125 -3.34765625 6.265625 C-2.90292969 5.51796875 -2.45820313 4.7703125 -2 4 C-1.34 4 -0.68 4 0 4 C0 2.68 0 1.36 0 0 Z " fill="#7CA2FF" transform="translate(283,850)"/>
<path d="M0 0 C6.2839345 5.80787886 10.15480911 13.69664098 12 22 C6.35785399 17.20417589 2.96760288 8.65278186 0 2 C0 1.34 0 0.68 0 0 Z " fill="#7B9BFD" transform="translate(803,476)"/>
<path d="M0 0 C0 3 0 3 0 3 Z M-3 1 C-2.34 2.32 -1.68 3.64 -1 5 C-1.66 5 -2.32 5 -3 5 C-3.268125 5.680625 -3.53625 6.36125 -3.8125 7.0625 C-4.204375 8.031875 -4.59625 9.00125 -5 10 C-5.22945313 10.61230469 -5.45890625 11.22460938 -5.6953125 11.85546875 C-6.38072064 13.60506322 -7.18581391 15.30649294 -8 17 C-8.99 17.33 -9.98 17.66 -11 18 C-9.3341708 11.83643195 -6.12194714 6.51740344 -3 1 Z " fill="#85A9FF" transform="translate(392,648)"/>
<path d="M0 0 C0.6796875 1.71484375 0.6796875 1.71484375 1 4 C-0.1796875 6.25390625 -0.1796875 6.25390625 -1.875 8.5625 C-3.74449154 11.14065926 -4.98534639 12.95603916 -6 16 C-6.99 16.33 -7.98 16.66 -9 17 C-7.46933687 11.18348012 -4.32262613 4.32262613 0 0 Z " fill="#80A7FF" transform="translate(302,816)"/>
<path d="M0 0 C0.66 0 1.32 0 2 0 C1.33989524 2.84550012 0.48275034 5.52325999 -0.5625 8.25 C-0.83191406 8.95640625 -1.10132813 9.6628125 -1.37890625 10.390625 C-1.58386719 10.92171875 -1.78882813 11.4528125 -2 12 C-2.66 12 -3.32 12 -4 12 C-4 12.66 -4 13.32 -4 14 C-4.66 14 -5.32 14 -6 14 C-5.42415568 11.61435923 -4.77772405 9.33317216 -4 7 C-3.34 7 -2.68 7 -2 7 C-1.855625 6.401875 -1.71125 5.80375 -1.5625 5.1875 C-1.1127561 3.43849596 -0.57107659 1.71322977 0 0 Z " fill="#79A7FF" transform="translate(263,888)"/>
<path d="M0 0 C0.66 0.66 1.32 1.32 2 2 C-1.66970387 12.74259681 -1.66970387 12.74259681 -7 16 C-5.35433477 10.31497465 -2.70967216 5.23318364 0 0 Z " fill="#81A2FF" transform="translate(419,592)"/>
<path d="M0 0 C0.66 0 1.32 0 2 0 C3.00508801 1.78881736 4.00392736 3.58114696 5 5.375 C5.8353125 6.87160156 5.8353125 6.87160156 6.6875 8.3984375 C8 11 8 11 8 13 C7.34 13 6.68 13 6 13 C4.99491199 11.21118264 3.99607264 9.41885304 3 7.625 C2.1646875 6.12839844 2.1646875 6.12839844 1.3125 4.6015625 C0 2 0 2 0 0 Z " fill="#81A6FF" transform="translate(953,749)"/>
<path d="M0 0 C0.33 1.32 0.66 2.64 1 4 C0.34 4 -0.32 4 -1 4 C-1.33 5.65 -1.66 7.3 -2 9 C-2.99 9.33 -3.98 9.66 -5 10 C-5 8.68 -5 7.36 -5 6 C-4.34 6 -3.68 6 -3 6 C-3 4.68 -3 3.36 -3 2 C-2.01 1.34 -1.02 0.68 0 0 Z " fill="#84A1FF" transform="translate(290,840)"/>
<path d="M0 0 C0.66 0 1.32 0 2 0 C1.32902328 4.19360449 -0.8558394 7.40334352 -3 11 C-3.66 11 -4.32 11 -5 11 C-4.54917531 9.53932801 -4.08906463 8.08151968 -3.625 6.625 C-3.36976563 5.81289063 -3.11453125 5.00078125 -2.8515625 4.1640625 C-2 2 -2 2 0 0 Z " fill="#89A4FF" transform="translate(380,667)"/>
<path d="M0 0 C2.62117509 1.31058754 3.24199164 2.78182491 4.6875 5.3125 C5.14511719 6.09238281 5.60273437 6.87226562 6.07421875 7.67578125 C7.1236295 10.31037786 6.98464547 11.3921814 6 14 C6 13.01 6 12.02 6 11 C5.01 10.67 4.02 10.34 3 10 C1.25327015 6.5065403 0 3.93154432 0 0 Z " fill="#66AFFE" transform="translate(1035,897)"/>
<path d="M0 0 C0.66 0 1.32 0 2 0 C0.58707905 4.8274799 -1.42974154 8.7162359 -4 13 C-4.66 13 -5.32 13 -6 13 C-4.31326082 8.50202887 -2.18326108 4.27113698 0 0 Z " fill="#80A1FF" transform="translate(428,575)"/>
<path d="M0 0 C0.99 0.495 0.99 0.495 2 1 C2 1.66 2 2.32 2 3 C2.99 3.33 3.98 3.66 5 4 C7 7 7 7 7 10 C5 10 5 10 2.9375 8.375 C0.63870686 5.55712453 0.32493615 3.5742977 0 0 Z " fill="#769DFF" transform="translate(1021,874)"/>
<path d="M0 0 C0.33 0.66 0.66 1.32 1 2 C-0.77479455 7.22578394 -2.81188075 10.2646504 -7 14 C-2.8 2.8 -2.8 2.8 0 0 Z " fill="#8C99FE" transform="translate(523,396)"/>
<path d="M0 0 C0.66 0 1.32 0 2 0 C0.77472971 4.05281712 -0.69880494 7.44360764 -3 11 C-3.75 9.4375 -3.75 9.4375 -4 7 C-2.86915563 4.49713591 -1.47860484 2.32992278 0 0 Z " fill="#77A1FF" transform="translate(271,873)"/>
<path d="M0 0 C0.33 0.66 0.66 1.32 1 2 C0.0625 4.625 0.0625 4.625 -1 7 C-1.99 6.67 -2.98 6.34 -4 6 C-4 4.35 -4 2.7 -4 1 C-2.68 0.67 -1.36 0.34 0 0 Z " fill="#7AA2F6" transform="translate(437,913)"/>
<path d="M0 0 C1.5625 1.75 1.5625 1.75 3 4 C2.6875 6.25 2.6875 6.25 2 8 C1.01 7.34 0.02 6.68 -1 6 C-1.25 3.4375 -1.25 3.4375 -1 1 C-0.67 0.67 -0.34 0.34 0 0 Z " fill="#75A1FF" transform="translate(1029,885)"/>
<path d="M0 0 C2.64465038 3.1254959 3.84414715 6.08788267 5 10 C4.34 10 3.68 10 3 10 C0.4606772 6.58168085 -0.3636198 4.24223102 0 0 Z " fill="#7AAAFF" transform="translate(940,723)"/>
<path d="M0 0 C0.66 0 1.32 0 2 0 C1.34 2.97 0.68 5.94 0 9 C-0.99 9 -1.98 9 -3 9 C-2.01 6.03 -1.02 3.06 0 0 Z " fill="#869FFF" transform="translate(495,447)"/>
</svg>
