<?xml version="1.0" encoding="UTF-8"?>
<svg version="1.1" xmlns="http://www.w3.org/2000/svg" width="2000" height="2000">
<path d="M0 0 C0.75222839 0.00054382 1.50445679 0.00108765 2.27947998 0.00164795 C14.07162086 0.04082866 25.20554361 0.77654649 36.5 4.375 C37.17546875 4.58398926 37.8509375 4.79297852 38.546875 5.00830078 C65.16597874 13.48552013 87.86091519 30.9619171 107.0234375 50.92578125 C108.96386041 52.84477993 110.91193769 54.59983004 112.98486328 56.3656702 C118.29633934 60.99915155 123.244701 65.98417195 128.21875 70.97349548 C129.28551505 72.03982378 130.35250012 73.10593201 131.41968441 74.17184073 C134.33405941 77.08399134 137.24532673 79.99923107 140.15607333 82.91500771 C143.30206569 86.06533405 146.45096355 89.21275391 149.59950256 92.36053467 C155.04836849 97.80887723 160.49540611 103.2590421 165.94119263 108.71046257 C173.81480874 116.59221902 181.69119734 124.4712001 189.56825697 132.34951491 C202.34938321 145.13282768 215.12827647 157.91837024 227.90576172 170.70532227 C240.31506917 183.12381413 252.72543049 195.54125126 265.13720703 207.95727539 C266.28554114 209.10600359 266.28554114 209.10600359 267.45707393 210.27793842 C271.29779794 214.11996751 275.13854265 217.96197591 278.97929764 221.80397403 C310.82274003 253.65777663 342.66255704 285.51520113 374.5 317.375 C374.50546844 315.87854195 374.50546844 315.87854195 374.51104736 314.35185242 C374.54828298 304.86566996 374.6063604 295.3798036 374.68390274 285.89386272 C374.72310639 281.01915494 374.75542579 276.14462049 374.77099609 271.26977539 C374.78634389 266.54921082 374.82110096 261.82912371 374.86830902 257.10877419 C374.88293876 255.32426968 374.89103018 253.53969694 374.89188385 251.75513268 C374.92016148 222.23200077 383.50641688 192.73002994 403.5 170.375 C404.19609375 169.5603125 404.8921875 168.745625 405.609375 167.90625 C426.52780233 143.87231221 456.28942544 127.39720353 488.40053749 125.09539986 C492.41100439 124.98299064 496.41555863 124.95700052 500.42700195 124.97094727 C501.94531754 124.96522431 503.46362884 124.95825275 504.98193359 124.95014954 C509.05450963 124.9324133 513.12686793 124.93334934 517.19947076 124.93909192 C520.62328029 124.942213 524.04704973 124.93605915 527.47085351 124.93005317 C535.56092615 124.91607308 543.65089305 124.917514 551.7409668 124.92895508 C560.03325229 124.94042439 568.32521389 124.92636564 576.61745673 124.8995586 C583.78661733 124.87726662 590.95567727 124.87079451 598.12487 124.87663502 C602.38479678 124.87997442 606.64451624 124.87779423 610.90441322 124.86038399 C644.92152426 124.7346449 644.92152426 124.7346449 660.5 129.375 C661.23750803 129.59426714 661.97501606 129.81353428 662.73487282 130.03944588 C678.46241652 134.77469508 693.2144952 142.3872598 705.5 153.375 C706.3146875 154.07109375 707.129375 154.7671875 707.96875 155.484375 C730.8790156 175.42479135 747.36274977 203.80129349 750.5 234.375 C750.68638022 239.59556659 750.27871973 244.78892651 749.85612965 249.98989019 C749.64456146 252.59378457 749.45860164 255.19858655 749.27763939 257.80477929 C749.00904865 261.63950976 748.73015464 265.47329026 748.44362092 269.30672109 C747.64901632 280.01301127 746.96137879 290.72665274 746.26977539 301.44000244 C746.19598876 302.57775947 746.12220213 303.71551649 746.04617955 304.88775101 C742.89931469 353.64582036 741.06277788 402.47119636 739.68194874 451.30814355 C739.62507694 453.30979209 739.56727743 455.31141194 739.5092386 457.31302696 C730.08141918 625.09948476 730.08141918 625.09948476 806.29740052 780.26595382 C817.930985 792.45678433 830.59705017 803.40126882 843.625 814.0625 C844.73424391 814.97490257 845.84342207 815.88738508 846.95253468 816.79994726 C871.25810121 836.74851739 896.58556916 855.08311655 923.89966011 870.74139309 C938.23317138 878.9900411 938.23317138 878.9900411 943.5 886.375 C945.27720744 888.27090788 947.1396769 890.0584492 949 891.875 C953.38431614 896.21409407 957.55385233 900.63344488 961.5 905.375 C961.96132324 905.9225293 962.42264648 906.47005859 962.89794922 907.03417969 C990.72374235 940.14071698 1002.80061055 972.99303931 1000.5 1016.375 C999.86117972 1023.22751612 998.4434771 1029.78207041 996.5 1036.375 C996.29101074 1037.09993652 996.08202148 1037.82487305 995.86669922 1038.57177734 C986.28519428 1070.76132763 964.59791861 1096.02667872 935.3125 1112.0625 C929.5351878 1115.09783803 923.67354263 1117.63480816 917.5 1119.75 C916.8500708 1119.97647217 916.2001416 1120.20294434 915.53051758 1120.4362793 C913.20489156 1121.18035659 910.86888705 1121.78079445 908.5 1122.375 C906.98316368 1122.75705849 906.98316368 1122.75705849 905.4356842 1123.14683533 C890.8695867 1126.24457615 876.11588152 1125.76347872 861.30430102 1125.67918181 C857.39795704 1125.66020514 853.49160331 1125.65864828 849.58522034 1125.65510559 C842.21565841 1125.64584591 834.84623278 1125.6213161 827.47673041 1125.59105712 C819.07506434 1125.55732179 810.67339116 1125.54097941 802.27167404 1125.52597082 C785.01437102 1125.4947598 767.7572 1125.44211999 750.5 1125.375 C750.50062392 1126.03701986 750.50124784 1126.69903972 750.50189067 1127.38112079 C750.56969097 1199.47230784 750.6325106 1271.56349857 750.66937256 1343.65470886 C750.66992479 1344.73194474 750.67047702 1345.80918061 750.67104598 1346.91905999 C750.6830182 1370.33149886 750.69409885 1393.74393806 750.70426132 1417.15637778 C750.70925057 1428.63818748 750.7144368 1440.11999708 750.71972656 1451.60180664 C750.7202496 1452.74437172 750.72077263 1453.8869368 750.72131152 1455.06412507 C750.73835041 1492.08371836 750.7683908 1529.1032872 750.80518888 1566.12286569 C750.84294164 1604.17206486 750.86754697 1642.2212505 750.87565996 1680.27046809 C750.87681254 1685.64728381 750.87811509 1691.02409948 750.87950897 1696.40091515 C750.87977866 1697.45912738 750.88004836 1698.51733961 750.88032622 1699.60761888 C750.88504916 1716.62727111 750.9035908 1733.64688146 750.92732814 1750.66651663 C750.95090862 1767.78586431 750.95986403 1784.90517056 750.95400551 1802.02453391 C750.95096816 1812.18970838 750.95902965 1822.35473092 750.98319017 1832.5198779 C750.99824506 1839.31993964 750.99861594 1846.11990246 750.98732725 1852.91997116 C750.98131748 1856.78836118 750.98142534 1860.65646492 750.99953273 1864.52482364 C751.08425981 1883.7345132 750.35318308 1901.92494891 743.3125 1920.0625 C743.01843262 1920.8359375 742.72436523 1921.609375 742.42138672 1922.40625 C737.40721248 1935.12513098 730.61175154 1946.17173656 721.5 1956.375 C720.7575 1957.23738281 720.015 1958.09976562 719.25 1958.98828125 C699.25478158 1981.8647551 670.02890578 1998.01466127 639.46689332 2000.54320906 C634.55656537 2000.79765423 629.64731524 2000.7657587 624.73205566 2000.73576355 C623.1054483 2000.73707541 621.47884158 2000.73970878 619.85223818 2000.74353105 C615.43028908 2000.7501734 611.00856195 2000.73833067 606.58664107 2000.72319686 C601.80023877 2000.71014944 597.01384735 2000.71463207 592.22743225 2000.71690369 C583.95049615 2000.71847096 575.67363141 2000.70911914 567.39671326 2000.69219017 C555.42993109 2000.66773026 543.46318317 2000.65998777 531.49637872 2000.6562262 C512.07748166 2000.64967264 492.65862256 2000.62974132 473.23974609 2000.60131836 C454.38460479 2000.57374935 435.52947382 2000.5525297 416.67431641 2000.53979492 C415.51060471 2000.53900675 414.34689302 2000.53821858 413.14791733 2000.53740653 C407.30947569 2000.5334912 401.47103397 2000.52970013 395.6325922 2000.52597082 C347.25503524 2000.49490907 298.87751948 2000.44210324 250.5 2000.375 C250.49864347 1999.06087281 250.49728694 1997.74674562 250.49588931 1996.3927964 C250.43594216 1938.44513596 250.37353588 1880.49747852 250.29867554 1822.54983521 C250.29754191 1821.6717865 250.29640829 1820.79373779 250.29524031 1819.88908154 C250.27058576 1800.80422654 250.24549274 1781.71937215 250.21994839 1762.63451832 C250.20742313 1753.27457482 250.1949947 1743.91463119 250.18261719 1734.5546875 C250.18138386 1733.62328752 250.18015054 1732.69188753 250.17887984 1731.73226331 C250.13898866 1701.57241228 250.10548504 1671.41255829 250.07531309 1641.2526961 C250.04425957 1610.24547567 250.00672351 1579.23826961 249.96109388 1548.23106704 C249.95464399 1543.84606266 249.9482678 1539.46105817 249.94193649 1535.07605362 C249.94006404 1533.781575 249.94006404 1533.781575 249.93815375 1532.4609453 C249.91829257 1518.59962128 249.90521404 1504.73829886 249.89470672 1490.87696494 C249.88398338 1476.9232661 249.86603162 1462.96959111 249.84083296 1449.01591079 C249.82609964 1440.73771463 249.81677696 1432.45955493 249.81543317 1424.18134554 C249.81381286 1417.97992041 249.80176899 1411.77855476 249.78586559 1405.57715072 C249.78104996 1403.08283661 249.77950371 1400.58851336 249.78172119 1398.09419559 C249.79035306 1386.46897203 249.64045472 1374.92208243 248.61540794 1363.33606148 C248.53905728 1362.46952202 248.46270662 1361.60298256 248.3840423 1360.71018433 C245.29483978 1329.69916729 228.7580143 1299.91779684 204.86767578 1280.01513672 C173.72643289 1255.04792289 139.82468247 1251.22017383 101.19702148 1251.22973633 C98.76748097 1251.22673908 96.33794092 1251.22333526 93.90840149 1251.21955872 C88.02557119 1251.21168141 82.14275032 1251.20850654 76.25991582 1251.20794634 C71.4692715 1251.20746834 66.67863043 1251.20539954 61.88798714 1251.20224571 C48.25367019 1251.19345482 34.61936106 1251.18882383 20.98504125 1251.18957619 C19.88630936 1251.18963612 19.88630936 1251.18963612 18.76538086 1251.18969727 C17.66528035 1251.18975859 17.66528035 1251.18975859 16.54295558 1251.18982115 C4.67328235 1251.19022708 -7.19635908 1251.18066663 -19.06602312 1251.1665589 C-31.30464078 1251.15212946 -43.54324299 1251.14529232 -55.78186935 1251.14615268 C-62.63240558 1251.14648241 -69.48290848 1251.14383473 -76.33343697 1251.13297462 C-82.784204 1251.12320956 -89.23490119 1251.12327139 -95.68567085 1251.13049126 C-98.03561507 1251.13152677 -100.38556383 1251.12923671 -102.73550034 1251.1231308 C-114.01740435 1251.09574581 -125.21437166 1251.26212891 -136.45835876 1252.25346375 C-137.32816016 1252.32942396 -138.19796155 1252.40538417 -139.09412056 1252.48364621 C-165.82084937 1255.1270346 -189.87269313 1267.4270349 -209.5 1285.375 C-210.29921875 1286.09171875 -211.0984375 1286.8084375 -211.921875 1287.546875 C-229.51629567 1304.14303066 -240.96060343 1326.93640731 -245.8125 1350.4375 C-246.05178223 1351.58641724 -246.05178223 1351.58641724 -246.29589844 1352.75854492 C-249.28573773 1368.56740266 -248.65222305 1384.89602586 -248.65821838 1400.90623474 C-248.66278995 1403.49718157 -248.66779084 1406.08812767 -248.67318195 1408.67907292 C-248.68417834 1414.29361881 -248.69158682 1419.9081603 -248.69658089 1425.52271461 C-248.70402335 1433.8712171 -248.71711463 1442.21970422 -248.73132664 1450.56819759 C-248.75508083 1464.61492832 -248.77430856 1478.66166179 -248.79092598 1492.70840263 C-248.80738609 1506.60957656 -248.8258768 1520.51074536 -248.84705925 1534.41191292 C-248.84903566 1535.71006638 -248.84903566 1535.71006638 -248.851052 1537.03444517 C-248.8577544 1541.4298389 -248.86449289 1545.82523258 -248.87124526 1550.22062624 C-248.91896499 1581.32554598 -248.96216241 1612.43047051 -249.00268555 1643.53540039 C-249.04205524 1673.74699248 -249.08348255 1703.9585806 -249.12768555 1734.17016602 C-249.12904808 1735.10197807 -249.13041061 1736.03379012 -249.13181442 1736.9938389 C-249.1455002 1746.35176961 -249.1592277 1755.70970026 -249.17298577 1765.06763087 C-249.20100974 1784.12956464 -249.22875529 1803.19149881 -249.2563324 1822.25343323 C-249.2582347 1823.56799007 -249.2582347 1823.56799007 -249.26017542 1824.90910361 C-249.34478255 1883.3977293 -249.42287971 1941.88636402 -249.5 2000.375 C-298.9876556 2000.46665123 -348.47530258 2000.53708728 -397.96302642 2000.57926132 C-403.81185825 2000.58426386 -409.66068991 2000.58944117 -415.50952148 2000.59472656 C-417.2560412 2000.59630043 -417.2560412 2000.59630043 -419.03784414 2000.59790608 C-437.86525929 2000.61528859 -456.69262534 2000.64681438 -475.5200114 2000.68361118 C-494.85348225 2000.72108061 -514.18692747 2000.74324853 -533.52043313 2000.75135398 C-545.44031743 2000.75682931 -557.36006295 2000.77409267 -569.27990451 2000.80666587 C-577.46523899 2000.8278879 -585.65050223 2000.83418271 -593.8358622 2000.82900551 C-598.5511065 2000.82645566 -603.26610909 2000.83023128 -607.98130989 2000.8518219 C-647.96651121 2001.02565652 -682.79722901 1994.02331762 -712.62890625 1965.2734375 C-734.70932146 1943.30518153 -749.63576785 1913.2312109 -749.76201695 1881.69502696 C-749.75676292 1880.49499551 -749.7515089 1879.29496405 -749.74609566 1878.058568 C-749.74840335 1876.75258147 -749.75071103 1875.44659494 -749.75308865 1874.10103306 C-749.75919093 1870.48952771 -749.75290651 1866.87813604 -749.74453239 1863.26663921 C-749.73763497 1859.33262524 -749.74241109 1855.39862225 -749.74568737 1851.46460599 C-749.74982714 1844.57444918 -749.74656047 1837.68432697 -749.73841095 1830.79417419 C-749.7263267 1820.54882025 -749.72574066 1810.30348807 -749.72749493 1800.0581283 C-749.73012117 1782.82270975 -749.72344582 1765.58730655 -749.71146011 1748.35189247 C-749.69962405 1731.28790524 -749.69192781 1714.2239244 -749.68975449 1697.15993309 C-749.68961701 1696.09874759 -749.68947953 1695.0375621 -749.68933788 1693.94421946 C-749.68866121 1688.55494361 -749.68805845 1683.16566775 -749.68748413 1677.77639189 C-749.68328387 1639.60914297 -749.66981071 1601.44190241 -749.65087891 1563.2746582 C-749.63250873 1526.19685918 -749.61834214 1489.11906243 -749.60986328 1452.04125977 C-749.60960023 1450.89825972 -749.60933718 1449.75525968 -749.60906615 1448.57762328 C-749.6064291 1437.09909477 -749.60387748 1425.62056625 -749.60138843 1414.14203771 C-749.59631608 1390.75917634 -749.59067357 1367.37631513 -749.58468628 1343.99345398 C-749.58427441 1342.38081249 -749.58427441 1342.38081249 -749.58385422 1340.73559239 C-749.56545445 1268.94872479 -749.53376422 1197.16186182 -749.5 1125.375 C-750.56236059 1125.38053076 -750.56236059 1125.38053076 -751.64618301 1125.38617325 C-768.96945148 1125.47494676 -786.29266134 1125.54091335 -803.61610794 1125.58224869 C-811.9939929 1125.60277525 -820.37172497 1125.63070342 -828.74951172 1125.67675781 C-836.06120346 1125.71693212 -843.37278436 1125.74250455 -850.68458343 1125.75135398 C-854.54745336 1125.75651764 -858.41000651 1125.76844031 -862.27277374 1125.79792023 C-878.69274134 1125.91831266 -894.54508154 1125.77087552 -910.5 1121.375 C-911.18367393 1121.18991631 -911.86734787 1121.00483261 -912.5717392 1120.81414032 C-942.89630084 1112.46887929 -968.12422748 1091.30957348 -983.83203125 1064.41796875 C-989.44580423 1054.50354543 -993.50997305 1044.36085734 -996.5 1033.375 C-997.01046875 1031.51681641 -997.01046875 1031.51681641 -997.53125 1029.62109375 C-999.71387557 1019.76896445 -999.81005847 1009.86142925 -999.875 999.8125 C-999.8830365 999.12002167 -999.891073 998.42754333 -999.89935303 997.71408081 C-1000.17308798 966.57696064 -988.0427548 939.19922934 -968.5 915.375 C-968.0359375 914.80346191 -967.571875 914.23192383 -967.09375 913.64306641 C-958.2473355 902.7955276 -948.78775339 892.40406266 -938.73046875 882.66796875 C-936.90880367 880.79525877 -935.22468247 878.89592447 -933.53150082 876.91053104 C-928.84626237 871.54433141 -923.80631737 866.54257186 -918.76551819 861.51353455 C-917.68426961 860.43113203 -916.60323884 859.3485119 -915.52240556 858.26569468 C-912.56869315 855.30782653 -909.61189296 852.35306241 -906.65454972 849.39882505 C-903.45909905 846.2056436 -900.26653551 843.00957775 -897.07359314 839.81388855 C-890.82484046 833.56069548 -884.57339485 827.31020134 -878.32097108 821.06067913 C-873.23832331 815.98029219 -868.15665542 810.89892707 -863.07568169 805.81686592 C-862.35179525 805.09282626 -861.62790882 804.36878659 -860.88208644 803.62280633 C-859.41140679 802.15180695 -857.94072939 800.68080533 -856.4700542 799.2098015 C-842.68805642 785.424954 -828.90299845 771.64317003 -815.11688804 757.86243571 C-803.29469451 746.04470976 -791.47512527 734.22436443 -779.6574707 722.40209961 C-765.92514275 708.66441694 -752.19118988 694.9283621 -738.45464987 681.19489104 C-736.98914251 679.72970222 -735.52363724 678.26451132 -734.05813408 676.79931831 C-733.3371278 676.07846631 -732.61612152 675.35761431 -731.87326657 674.6149183 C-726.79899342 669.54150761 -721.7258796 664.46693945 -716.65321541 659.39192009 C-710.46907107 653.2049676 -704.2831409 647.0198073 -698.09493334 640.83691876 C-694.93929861 637.68390732 -691.78445977 634.53011055 -688.63179398 631.37413025 C-685.74283211 628.48217714 -682.85155076 625.59256383 -679.95844381 622.70475764 C-678.91525332 621.66267928 -677.87289416 620.61976785 -676.83147813 619.57591616 C-675.40883487 618.15020253 -673.98277035 616.7279053 -672.55658054 615.3057394 C-671.767519 614.51684021 -670.97845746 613.72794103 -670.16548496 612.9151358 C-668.07711057 610.92497092 -665.96456897 609.03514366 -663.779962 607.15531117 C-658.96140057 602.96681229 -654.46928883 598.47984768 -649.9640274 593.95928192 C-649.03027627 593.02638503 -648.09652513 592.09348815 -647.13447851 591.13232166 C-644.55069101 588.5507606 -641.97001902 585.96610496 -639.38985663 583.38092146 C-636.5792251 580.56593843 -633.76566633 577.75388368 -630.95247889 574.94145536 C-626.0249872 570.01449598 -621.09934754 565.08569117 -616.17492104 560.15566826 C-608.85209202 552.82454063 -601.52637698 545.496302 -594.20004867 538.16867156 C-581.87349553 525.83978457 -569.54920129 513.5086419 -557.22612 501.17628479 C-540.39752642 484.33508482 -523.56565011 467.49716866 -506.73289591 450.66012734 C-498.89013078 442.81535596 -491.04752628 434.97042399 -483.20496368 427.12545013 C-482.41988028 426.34012572 -481.63479688 425.5548013 -480.82592307 424.74567917 C-462.14208963 406.05603528 -443.45982972 387.36481871 -424.77783203 368.67333984 C-423.96047256 367.85556672 -423.14311308 367.0377936 -422.30098514 366.19523948 C-409.86726257 353.75522048 -397.43362201 341.31511951 -385 328.875 C-371.74076917 315.60884023 -358.48150819 302.3427106 -345.22216797 289.07666016 C-344.40524799 288.25932559 -343.58832801 287.44199102 -342.74665288 286.59988873 C-324.09688431 267.94067239 -305.44666622 249.28190565 -286.79503632 230.62454987 C-285.61929802 229.44845008 -285.61929802 229.44845008 -284.41980745 228.24859071 C-276.59478483 220.42118279 -268.76968353 212.59385354 -260.94446473 204.76664175 C-244.13025447 187.94811426 -227.31742618 171.12820859 -210.50738494 154.30551411 C-198.25489093 142.04383921 -186.00068619 129.7838763 -173.74469006 117.52570188 C-166.46170199 110.24129825 -159.18013853 102.95547711 -151.90058026 95.66764592 C-147.03879397 90.80060545 -142.17519845 85.93537798 -137.310128 81.07162035 C-134.53775739 78.29989106 -131.76618826 75.52737314 -128.9968341 72.7526297 C-126.01258774 69.76260992 -123.02447376 66.7764852 -120.0359726 63.79071808 C-119.17848984 62.93032246 -118.32100708 62.06992684 -117.43753999 61.18345863 C-113.12835845 56.88496353 -108.75041908 52.73865137 -104.12417784 48.78198525 C-102.20303565 47.1177471 -100.4365158 45.34322508 -98.6875 43.5 C-93.94403575 38.71057195 -88.80593245 34.52425262 -83.5 30.375 C-82.96552246 29.94815918 -82.43104492 29.52131836 -81.88037109 29.08154297 C-65.66388429 16.19972728 -47.71937553 7.03781865 -27.5 2.375 C-26.69143555 2.18357422 -25.88287109 1.99214844 -25.04980469 1.79492188 C-16.7425362 0.04438386 -8.44898637 -0.02295227 0 0 Z " fill="#FAFDF8" transform="translate(999.5,-0.375)"/>
</svg>
